<?xml version="1.0" encoding="UTF-8"?>
<svg xmlns="http://www.w3.org/2000/svg" style="display:none;">
<symbol id="accessibility2-solid" viewBox="0 0 128 128"><path d="M64 12a1 1 90 010 25 1 1 90 010-25M30 33c-10-4-13 9-4 12l21 8q6 3 6 9 0 10-4 18L36 107c-4 8 9 13 12 5L62 86q2-5 4 0l14 26c4 8 16 3 12-5L79 80q-4-8-4-18 0-6 6-9l19-8c9-3 6-16-4-12L74 41q-10 4-20 0Z"/></symbol>
<symbol id="apple-solid" viewBox="0 0 128 128"><path d="M102 90s-2 6-7 12-8 12-15 12c-6 0-9-4-15-4s-11 4-16 4-8-4-13-9C25 91 20 68 26 56S41 41 47 41s12 4 16 4 10-4 17-4 15 3 19 10q-22 20 3 39M82 14Q81 33 63 36q1-21 19-22z"/></symbol>
<symbol id="audio-solid" viewBox="0 0 128 128"><path d="M66 18q0-5-5-1L33 42H18q-4 0-4 4V80q0 4 4 4H33l28 26q5 4 5-1Zm33 5-5 5q33 36 0 72l5 5q38-41 0-82ZM82 39l-5 5q21 20 0 40l5 5q25-25 0-50Z"/></symbol>
<symbol id="back-arrow-solid" viewBox="0 0 128 128"><path d="m55 49V26L15 64l40 37V76m0-27q56 0 58 53-25-39-58-26"/></symbol>
<symbol id="bank-court-solid" viewBox="0 0 128 128"><path d="M111 32q3 1 3 8H14q0-7 3-8L64 15Zm-1 69q4 0 4 11H14q0-11 4-11ZM29 48H39V93H29Zm60 0H99V93H89ZM59 48H69V93H59Z"/></symbol>
<symbol id="bank-court2-solid" viewBox="0 0 128 128"><path d="M108 45q8 6 0 6H20q-8 0 0-6L60 19q4-2 8 0Zm2 56q4 0 4 11H14q0-11 4-11Z"/><path d="M55 58V51H73v7Zm15 0V94H58V58ZM55 94H73v7H55Z" id="id1"/><use href="#id1" x="33"/><use href="#id1" x="-33"/></symbol>
<symbol id="battery-bars-solid" viewBox="0 0 128 128"><path d="M35 37q0-7 10-7H86q9 0 9 8v72q0 7-7 7H42q-7 0-7-6Zm17-7V22q13-4 26 0v8ZH45M42 58V40H87V58Zm0 25H87V65H42Zm45 7v19H42V90Z"/></symbol>
<symbol id="battery-power-solid" viewBox="0 0 128 128"><path d="M33 93q-8 0-8-10V42q0-9 8-9h72q7 0 7 7V85q0 8-7 8ZM62 59 77 39 74 57l6 6L62 87l7-21-7-7M25 76H17q-4-14 0-27h8Z"/></symbol>
<symbol id="battery-solid" viewBox="0 0 128 128"><path d="M35 37q0-7 10-7H86q9 0 9 8v72q0 7-7 7H42q-7 0-7-6Zm17-7V22q13-4 26 0v8ZH45 86ZH86Z"/></symbol>
<symbol id="bell-notification-solid" viewBox="0 0 128 128"><path d="M54 101a11 9 90 0020 0m-59 0C30 83 26 65 31 40a33 34 90 0166 0c5 25 1 43 16 61Z"/></symbol>
<symbol id="bell-notifications-off-solid" viewBox="0 0 128 128"><path d="M54 92a11 9 90 0020 0M26 92c18-28-2-51 18-64a33 34 90 0140 0c20 14 0 36 18 64Zm82-72-88 88"/></symbol>
<symbol id="bell-notifications-on-solid" viewBox="0 0 128 128"><path d="M54 92a11 9 90 0020 0M26 92c18-28-2-51 18-64a33 34 90 0140 0c20 14 0 36 18 64Z"/></symbol>
<symbol id="bluesky-solid" viewBox="0 0 128 128"><path d="M64 85q12 41 36 13 11-18-18-25 25 3 29-12 4-39 0-40c-11-4-28 9-47 40C45 30 28 17 17 21q-4 1 0 40 4 15 29 12-29 7-18 25 24 28 36-13"/></symbol>
<symbol id="bookmark-solid" viewBox="0 0 128 128"><path d="M30 114 64 99l34 15V14H30V114Z"/></symbol>
<symbol id="briefcase-solid" viewBox="0 0 128 128"><path d="M58 76v5q6 4 12 0V76h41v28H17V76ZM76 38V30H52v8Zm5-13H47V38H17V67H58V62q6-4 12 0v5h41V38H81Z"/></symbol>
<symbol id="bug-solid" viewBox="0 0 128 128"><path d="M64 46c-50 0-39 67 0 67Zc50 0 39 67 0 67M48 49C34 18 94 18 80 49z" fill="#000"/><path d="M56 27 50 15m28 0-6 12M33 63H25L14 46M95 63h8l11-17M31 83H23L15 93m28 12H34l-9 8m60-8h9l9 8M97 84h8l8 9"/></symbol>
<symbol id="camera-solid" viewBox="0 0 128 128"><path d="M114 39q0-15-10-5L84 54V39q0-10-10-10H24Q14 29 14 39V88q0 11 10 11H74q10 0 10-10V74l20 20q10 10 10-5V39"/></symbol>
<symbol id="camera2-solid" viewBox="0 0 128 128"><path d="M22 38h84V92H22ZM64 83a1 1 0 000-37 1 1 0 000 37ZM48 28H80q2 0 2 2v8H46V30q0-2 2-2ZM64 55a1 1 0 000 19 1 1 0 000-19Z"/></symbol>
<symbol id="car-solid" viewBox="0 0 128 128"><path d="M43 25q-6 0-10 9L24 53q-6-2-7 1l-2 6q-1 3 4 5-1 1-1 3V91q1 2 3 2v6q0 4 4 4H36q4 0 4-4V93H90v6q0 4 4 4h10q4 0 4-4V93q2 0 2-2V68q0-2-1-3s0 0 0 0q5-2 4-5l-2-6q-1-3-7-1L95 34q-4-9-8-9ZM35 56q-4 0-3-3c12-21 3-21 32-21s20 0 32 21q1 3-3 3Zm7 15q3 1 3 5T29 79q-3 0-3-3V69q0-3 3-2Zm58-4q3-1 3 2v7q0 3-3 3-16 1-16-3t3-5l13-4Z"/></symbol>
<symbol id="cart-solid" viewBox="0 0 128 128"><path d="M43 81q-8 2-3 7h67v3H95a6 6 90 11-1 0H51a6 6 90 11-1 0H39a1 1 90 013-12ZM35 41h77l-7 40H40L31 41ZQ29 27 16 27v3q10 0 15 11"/></symbol>
<symbol id="chart-bar-solid" viewBox="0 0 128 128"><path d="M13 13v102h102" fill="none" stroke="#000"/><path d="M21 107V71h24v36Zm32 0V31h24v76Zm32 0V55h24v52Z"/></symbol>
<symbol id="chart-pie-solid" viewBox="0 0 128 128"><path d="M67 13a55 55 90 0148 47H67ZM60 67V20a47 47 90 1048 47Z"/></symbol>
<symbol id="circle-heart-solid" viewBox="0 0 128 128"><circle cx="64" cy="64" r="50"/><path d="M64 87c37-21 30-58 0-37-29-20-36 18 0 37" fill="#000"/></symbol>
<symbol id="circle-solid" viewBox="0 0 128 128"><circle cx="64" cy="64" r="50"/></symbol>
<symbol id="cloud-solid" viewBox="0 0 128 128"><path d="M37 94a16 16 90 112-46 27 27 90 0151 4 1 1 0 014 42Z"/></symbol>
<symbol id="coffee-cup-solid" viewBox="0 0 128 128"><path d="M83 48H27V89Q27 113 45 113H65Q83 113 83 86 118 55 83 55ZM83 61Q106 60 83 78ZM39 38C43 31 34 25 39 15M55 15C50 23 59 31 55 38M71 38C75 31 65 25 71 15"/></symbol>
<symbol id="coffee-cup2-solid" viewBox="0 0 128 128"><path d="M85 55H29V88q0 19 23 19h7q26 0 26-19 30-24 0-28Zm0 12q15 1 0 12ZM41 45c4-7-5-13 0-23m16 0c-5 8 4 16 0 23m16 0c4-7-6-13 0-23"/></symbol>
<symbol id="cog-solid" viewBox="0 0 128 128"><path d="M59 18h9l5 15a32 32 90 015 2l13-9 6 5-6 15a32 32 90 012 5l17 2 1 8-14 7a32 32 90 01-1 6l11 10-5 8-15-4a32 32 90 01-4 4l1 16-8 2-9-12a32 32 90 01-5 0l-9 12-7-2 1-16a32 32 90 01-5-4L27 92l-5-8L33 74a32 32 90 01-1-6L18 61l2-8 16-2a32 32 90 013-5L32 31l7-5 12 9a32 32 90 016-2Zm5 32a14 14 90 000 29 14 14 90 000-29"/></symbol>
<symbol id="color-palette-solid" viewBox="0 0 128 128"><path d="M63 89c7-1 12 11 1 12s-15-9-1-12M94 47c14 0 14 20 0 20S78 47 94 47M62 29c8 1 9 11-2 11s-9-13 2-11M37 45c9 1 8 16-3 13s-7-15 3-13m7 26c6-1 15 9 2 13S29 72 44 71m31 44Q8 114 14 57c3-38 99-80 101 14q0 28-19 11Q66 58 83 95q12 20-8 20Z"/></symbol>
<symbol id="contrast-solid" viewBox="0 0 128 128"><path d="M64 13a1 1-45 010 100Z"/><path d="M64 13a1 1 0 000 100" fill="#000"/></symbol>
<symbol id="discord-solid" viewBox="0 0 128 128"><path d="M36 87l9 5-6 12L18 92q-4-2-4-8 1-30 13-49 2-4 6-5l16-4 4 7q11-3 22 0l4-7 16 5q4 1 6 5 12 19 13 49 0 6-4 8L89 104 83 92l9-5-1-1q-27 14-54 0ZM47 77c-11 0-11-20 0-20s11 20 0 20Zm34 0c-11 0-11-20 0-20s11 20 0 20Z"/></symbol>
<symbol id="divided-by-solid" viewBox="0 0 128 128"><path d="M25 73V55h78V73ZM64 85a1 1 90 010 22 1 1 90 010-22m0-42a1 1 0 000-22 1 1 0 000 22"/></symbol>
<symbol id="document-paper-solid" viewBox="0 0 128 128"><path d="M26 15v98h75V33H83V15Zm57 0 18 18Z"/></symbol>
<symbol id="drop-water-solid" viewBox="0 0 128 128"><path d="M64 14C41 44 16 86 43 106q21 15 42 0c27-20 2-62-21-92Z"/></symbol>
<symbol id="earth-solid" viewBox="0 0 128 128"><circle cx="64" cy="64" r="50"/><path d="M51 23s-5-4-1-5q4 1 1 5Zm3-8q7 6 2 10-8 3 0 10 4 1 7-5 6 7 7 0 2-1 5 0s0 4 1 4q4 4 3 4 3 2-6 2c-8 3-7-2-14-2q-6-1-9 1-11 0-10 8c-2 8-3 7 1 11s9 1 15 16 2 8 5 20c1 3 4 3 5 5q2 1 3 0c2-1 3-2 5-5q6-7 6-10V75c0-3 12-10 10-12q-8-10-2-5c6 7 7-4 7-8q4-1 7 0 4 13 6 3c2-3 2-3 4-1-8-34-38-40-58-37M15 68c14 2 3 9 4 18-4-7-5-19-4-18" stroke="none" fill="#000"/></symbol>
<symbol id="edit-solid" viewBox="0 0 128 128"><path d="M65 77 47 59 85 21a40 40 0 0119 17Zm-6 6-25 6 7-24ZM22 105h81"/></symbol>
<symbol id="ellipses-solid" viewBox="0 0 128 128"><path d="M55 100a1 1 0 0018 0 1 1 0 00-18 0" id="id2"/><use href="#id2" x="36"/><use href="#id2" x="-36"/></symbol>
<symbol id="email-rounded-solid" viewBox="0 0 128 128"><path d="M64 87l48-52V99H16V35Zm0-12 42-45H23Z"/></symbol>
<symbol id="email-solid" viewBox="0 0 128 128"><path d="M64 87l48-52V99H16V35Zm0-12 42-45H23Z"/></symbol>
<symbol id="facebook-solid" viewBox="0 0 128 128"><path d="M69 70v43H51V70H37V52H51V37s0-22 22-22H87V34H77c-4 0-7 4-7 7V52H87L84 70Z"/></symbol>
<symbol id="fast-forward-solid" viewBox="0 0 128 128"><path d="M28 28v72L60 71v29l40-36L60 28V57Z"/></symbol>
<symbol id="flag-pointy-solid" viewBox="0 0 128 128"><path d="M27 71h74L89 43l12-28H27v99"/></symbol>
<symbol id="flag-solid" viewBox="0 0 128 128"><path d="M27 71h74V15H27v99"/></symbol>
<symbol id="flag-wavy-solid" viewBox="0 0 128 128"><path d="M27 69c33 8 49-6 74 0V17c-22-9-41 6-74-1v96"/></symbol>
<symbol id="flame-solid" viewBox="0 0 128 128"><path d="M55 15c8 7 20 65 28 35q27 53-9 63c4-32-7-27-12-43q-27 24-7 43C3 90 66 46 55 15Z"/></symbol>
<symbol id="flower-solid" viewBox="0 0 128 128"><path d="M64 39q30-53 19 7 55-9 7 18 48 36-7 18 11 60-18 7-30 53-18-7-57 18-8-18-49-28 7-18-12-60 18-7Za1 1 90 001 50A1 1 90 0064 39"/></symbol>
<symbol id="folder-solid" viewBox="0 0 128 128"><path d="M115 103H14V25H46L57 36h58Z"/></symbol>
<symbol id="forward-arrow-solid" viewBox="0 0 128 128"><path d="m73 49V26l40 38-40 37V76m0-27q-56 0-58 53 25-39 58-26"/></symbol>
<symbol id="funnel-solid" viewBox="0 0 128 128"><path d="M14 14 49 61q2 3 2 8v45l26-13V69q0-5 2-8l35-47Z"/></symbol>
<symbol id="github-solid" viewBox="0 0 128 128"><path d="M75 114V96q0-5-5-7 29-7 19-38 2-10 0-14-5 0-14 5-12-5-23 0-10-5-14-5-2 5 0 14-10 31 19 38-5 2-5 7-10 2-14-5-3-5-10-5-5 1 3 6c5 3 3 13 22 12v10m0 0a50 50 90 1 1 22 0"/></symbol>
<symbol id="hand-open-coins-solid" viewBox="0 0 128 128"><path d="m14 85 20-16q6-4 35-4c3 0 7 7 0 10q-23 4-20 7 2 4 40-3c8-3 10-8 15-14 4-6 15-11 7 5q-4 11-14 20-7 4-21 6-36 4-53 18"/><circle cx="65" cy="45" r="7" id="id3"/><use href="#id3" x="16" y="12"/><use href="#id3" x="19" y="-8"/></symbol>
<symbol id="hand-open-heart-solid" viewBox="0 0 128 128"><path d="M14 85 34 69q6-4 35-4c3 0 7 7 0 10q-23 4-20 7 2 4 40-3c8-3 10-8 15-14 4-6 15-11 7 5q-4 11-14 20-7 4-21 6-36 4-53 18M85 34A8 8 90 1071 45L85 59 99 45A8 8 90 0085 34"/></symbol>
<symbol id="head-solid" viewBox="0 0 128 128"><path d="M95 89q5 15 2 16l-26 8q-4 1-8-16-2-4-12-3-15 1-15-24c-13 0-11-4-1-21A33 33 90 1195 66q-6 8-1 20Z"/></symbol>
<symbol id="heart-solid" viewBox="0 0 128 128"><path d="M64 106C-18 72 18-5 64 34c46-39 82 38 0 72Z"/></symbol>
<symbol id="heart2-solid" viewBox="0 0 128 128"><path d="M64 108s38-36 44-47A1 1 0 1064 31 1 1 1 0020 61c6 11 44 47 44 47Z"/></symbol>
<symbol id="home-solid" viewBox="0 0 128 128"><path d="M18 50 64 17l46 33v61H79V65H48v46H18Z"/></symbol>
<symbol id="hourglass-solid" viewBox="0 0 128 128"><path d="M98 15q3 5 0 10H91q4 22-17 39 21 17 17 39h7q3 5 0 10H30q-3-5 0-10h7Q33 81 54 64 33 47 37 25H30q-3-5 0-10Z"/></symbol>
<symbol id="kebab-menu-solid" viewBox="0 0 128 128"><path d="M53 64a1 1 0 0022 0A1 1 0 0053 64" id="id4"/><use href="#id4" y="32"/><use href="#id4" y="-32"/></symbol>
<symbol id="key-solid" viewBox="0 0 128 128"><path d="M31 49a13 13 90 004 4 13 13 90 10-4-4Zm83 56-9 9L55 64a27 27 90 119-9L85 76 98 63l8 8L93 84l7 7 6-6 8 8-6 6Z"/></symbol>
<symbol id="key2-solid" viewBox="0 0 128 128"><path d="M98 69V83H82V69H56a22 22 90 110-10h58V69ZM31 55a10 10 90 1010 1A10 10 90 0031 55Z"/></symbol>
<symbol id="layers-solid" viewBox="0 0 128 128"><path d="M64 16l48 25L64 65 16 40Z" fill="#000"/><path d="M16 88l48 24 48-25M16 64 64 88l48-24"/></symbol>
<symbol id="layout-dashboard-solid" viewBox="0 0 128 128"><path d="M58 18V72H18V18ZM70 49V18h40V49Zm0 12v49h40V61ZM58 84H18v26H58Z"/></symbol>
<symbol id="layout-grid-solid" viewBox="0 0 128 128"><path d="M42 18V42H18V18ZM86 42V18h24V42Zm0 44v24h24V86ZM42 86H18v24H42ZM52 18H76V42H52ZM18 52H42V75H18Zm34 0V75H76V52Zm34 0V75h24V52ZM52 86H76v24H52Z"/></symbol>
<symbol id="leaf-solid" viewBox="0 0 128 128"><path d="m19 113c27-18 55-37 66-65M40 99c-11-7-41-40 62-84 30 72-38 97-62 84"/></symbol>
<symbol id="leaf2-solid" viewBox="0 0 128 128"><path d="M40 99C29 92-1 59 102 15c30 72-38 97-62 84m1-1-22 15"/></symbol>
<symbol id="lightbulb-off-solid" viewBox="0 0 128 128"><path d="M71 99V93q0-6 7-10A27 27 1 1050 83q7 4 7 10v6Zm-14 6H71m0 6H57m4 0q3 4 6 0"/></symbol>
<symbol id="lightbulb-on-solid" viewBox="0 0 128 128"><path d="M67 111q-3 4-6 0m-4 0H71m0-6H57m0-6V93q0-6-7-10a27 27 1 1128 0q-7 4-7 10v6ZM17 65h7m3-37 6 5M64 14v7m37 7-5 5m15 32h-7"/></symbol>
<symbol id="lightning-solid" viewBox="0 0 128 128"><path d="M89 15H50L35 69H55L42 113 94 54H68Z"/></symbol>
<symbol id="linkedin-solid" viewBox="0 0 128 128"><path d="M111 112H90V80q0-14-10-14T70 80v32H51V50H69V60s6-10 20-10c12 0 22 10 22 26Zm-93 0H39V50H18ZM29 42a1 1 0 000-26 1 1 0 000 26Z"/></symbol>
<symbol id="list-solid" viewBox="0 0 128 128"><path d="M26 30V42H14V30Zm87 6H39M26 57V69H14V57Zm87 6H39M26 84V96H14V84Zm87 6H39"/></symbol>
<symbol id="location-solid" viewBox="0 0 128 128"><path d="M64 14C42 14 24 32 24 54q0 13 9 23l31 37L95 77q9-10 9-23c0-22-18-40-40-40Zm0 25a1 1 0 000 28 1 1 0 000-28"/></symbol>
<symbol id="mastodon-solid" viewBox="0 0 128 128"><path d="M96 76V50q0-17-16-18-11-1-16 9-5-10-17-9-16 1-16 18V76H44V50q0-8 7-8t7 11V67H69V52q0-10 7-10t7 7V76Zm14-43q3 23 1 43-1 14-38 15-19-1-25-3 0 9 11 15 13 4 28 0v7q-23 5-44 0-17-6-23-25-7-34 0-52 3-12 17-14 26-5 56-1 16 2 17 15Z"/></symbol>
<symbol id="meatballs-menu-solid" viewBox="0 0 128 128"><path d="M53 64a1 1 0 0022 0A1 1 0 0053 64" id="id5"/><use href="#id5" x="32"/><use href="#id5" x="-32"/></symbol>
<symbol id="medical-first-aid-solid" viewBox="0 0 128 128"><path d="M15 15h98v98H15ZM52 53V25H75V53h28V75H75v28H53V75H25V53Z"/></symbol>
<symbol id="medium-solid" viewBox="0 0 128 128"><path d="M114 86v9h-3Q93 95 91 72V69q2-23 21-23h2v3h-2q-10 0-10 16h12v2H102c0 9 5 17 12 19ZM91 31V30H72L54 73 35 30H14v1q6 1 6 6V89q0 5-6 6H29q-6-1-6-6V40L47 95h1L72 39V88q0 6-5 7H91q-5-1-5-7V37q0-4 5-6Z"/></symbol>
<symbol id="megaphone-solid" viewBox="0 0 128 128"><path d="M44 72q36 6 49 18V21Q80 32 44 39Zm-8 0V39H21c-9 0-9 33 0 33Zm4 7H27l9 28H50ZM93 49q9 6 0 13m8-28 6-4m-6 47 6 4m0-26h7"/></symbol>
<symbol id="message-solid" viewBox="0 0 128 128"><path d="M50 86h54q9 0 9-9V38q0-10-10-10H23q-9 0-9 9V77q0 9 9 9H35v14Z"/></symbol>
<symbol id="message2-solid" viewBox="0 0 128 128"><path d="M52 85H94Q111 85 111 56 111 27 95 27H33Q17 27 17 56 17 85 33 85V99Z"/></symbol>
<symbol id="microphone-solid" viewBox="0 0 128 128"><path d="M50 28c0-18 28-18 28 0V65c0 17-28 17-28 1Z" fill="#000"/><path d="M94 76q-30 26-60 0M64 89v24m24 0H40"/></symbol>
<symbol id="minus2-solid" viewBox="0 0 128 128"><path d="M25 55V73h78V55Z"/></symbol>
<symbol id="monitor-solid" viewBox="0 0 128 128"><path d="M58 84q1 10-14 16v2H84v-2Q69 94 70 84Zm56-59H14V84H114Z"/></symbol>
<symbol id="moon-rounded-solid" viewBox="0 0 128 128"><path d="m74 40 4 10 10 4-10 4-4 10-4-10-10-4 10-4z" id="id6"/><use href="#id6" x="24" y="-24"/><path d="M105 94A50 49 35 1150 16a54 50 35 0055 78Z"/></symbol>
<symbol id="moon-solid" viewBox="0 0 128 128"><path d="m74 40 4 10 10 4-10 4-4 10-4-10-10-4 10-4z" id="id7"/><use href="#id7" x="24" y="-24"/><path d="M105 94A50 49 35 1150 16a54 50 35 0055 78Z"/></symbol>
<symbol id="moon2-rounded-solid" viewBox="0 0 128 128"><use href="#x" x="24" y="-24"/><path d="M108 94A50 49 35 1153 16a54 50 35 0055 78Z"/></symbol>
<symbol id="moon2-solid" viewBox="0 0 128 128"><path d="M108 94A50 49 35 1153 16a54 50 35 0055 78Z"/></symbol>
<symbol id="mouse-pointer-solid" viewBox="0 0 128 128"><path d="M100 63 28 19l16 84L59 76l22 31 11-8L70 68Z"/></symbol>
<symbol id="music-note-solid" viewBox="0 0 128 128"><path d="M47 97c0 19-31 23-31 4s31-23 31-4m66-14c0 19-30 23-30 4s30-23 30-4Z" fill="#000"/><path d="M113 83ZV15L47 29V97"/></symbol>
<symbol id="mute-solid" viewBox="0 0 128 128"><path d="M66 18q0-5-5-1L33 42H18q-4 0-4 4V80q0 4 4 4H33l28 26q5 4 5-1ZM82 45 95 58l13-13 6 6-13 13 13 14-6 6L95 70 82 84l-6-6L89 64 76 51Z"/></symbol>
<symbol id="new-starburst-solid" viewBox="0 0 128 128"><path d="M95 19q3 13 16 16-13 3-16 16-3-13-16-16 13-3 16-16M60 21q9 35 44 44-35 8-44 44-8-36-44-44 36-8 44-44"/></symbol>
<symbol id="no-ai-solid" viewBox="0 0 128 128"><path d="M45 78l4-3H46Zm3-9h8l1-1-4-16ZM87 41V33H80V47L63 62 54 33H51L36 85l-9 8A20 20 0 1199 31ZM38 92h3l1-3L59 75h1l7 17h7L65 69 80 55V92h7V50l16-14A20 20 0 1132 97Z"/></symbol>
<symbol id="paintbrush-solid" viewBox="0 0 128 128"><path d="M43 76Q29 76 25 92s-2 15-11 22c0 0 21 1 28-3q18-10 14-23L43 76 56 88m56-63q7-15-8-9L57 57q-7 0-7 9L65 80q8 0 8-8ZM49 68 63 81l-6 5L45 75Z"/></symbol>
<symbol id="pause-solid" viewBox="0 0 128 128"><path d="M36 28H56v72H36Zm36 0H92v72H72Z"/></symbol>
<symbol id="paw-print-animal-solid" viewBox="0 0 128 128"><path d="M32 92q32-45 66 0c7 10-1 24-12 20q-22-8-42 0c-11 4-19-10-12-20Zm80-45c10 8-3 32-14 25s3-32 14-25ZM90 18c12 6 2 35-12 29s1-34 12-29ZM41 17c16-7 27 23 12 31S28 24 41 17ZM17 46C28 35 45 61 34 70S6 55 17 46Z"/></symbol>
<symbol id="pen-solid" viewBox="0 0 128 128"><path d="M28 82 14 113 30 99a3 3 0 111 1L15 114l31-13 4-9L37 79Zm86-56q0-10-10-10L57 60Q44 65 40 77L52 89q13-3 18-16Z"/></symbol>
<symbol id="pencil-solid" viewBox="0 0 128 128"><path d="M23 87l18 18 3-3L26 84Zl-8 26 26-8 72-72q0-17-18-18Zm81-45L86 24l3-3 18 18ZM41 87 84 44l-3-3L38 84Z"/></symbol>
<symbol id="phone-solid" viewBox="0 0 128 128"><path d="M48 49q7 25 32 32c11-11 11-11 22 0s11 11 0 22c-5 5-16 16-54-22C10 38 21 32 26 27c11-11 11-11 22 0s11 11 0 22"/></symbol>
<symbol id="plane-solid" viewBox="0 0 128 128"><path d="M73 49l38 25V84L73 71V98l14 9v7l-23-5-23 5v-7l14-9V71L17 84V74L55 49V31c0-22 18-22 18 0V49Z"/></symbol>
<symbol id="plane2-solid" viewBox="0 0 128 128"><path d="M91 51l10 49-8 7L74 68 53 89l4 18-6 5L37 90 16 76l5-5 18 4L60 54 20 34l8-7L77 37 91 23c17-17 31-3 14 14L91 51Z"/></symbol>
<symbol id="planet-heart-solid" viewBox="0 0 128 128"><circle cx="64" cy="64" r="50"/><path d="M82 110c-45-25 16-16 18-52q2-20 12-7M15 68c41 0 5-20 13-28q16-8-2-8m14-12q12 20 45-1"/><path d="M64 87c37-21 30-58 0-37-29-20-36 18 0 37" fill="#000"/></symbol>
<symbol id="play-solid" viewBox="0 0 128 128"><path d="M40 28v72L92 64Z"/></symbol>
<symbol id="plus2-solid" viewBox="0 0 128 128"><path d="M55 55V25H73V55h30V73H73v30H55V73H25V55Z"/></symbol>
<symbol id="poop-solid" viewBox="0 0 128 128"><path d="M102 114H29A1 1 90 0126 89a1 1 90 017-24Q25 41 48 41q22-2 11-27 28 1 18 28 23-2 18 23a1 1 90 015 24 1 1 90 012 25"/></symbol>
<symbol id="pricetag-label-solid" viewBox="0 0 128 128"><path d="M70 18 18 70l40 41 52-53V18ZM94 34A1 1 0 0078 50 1 1 0 0094 34z"/></symbol>
<symbol id="print-solid" viewBox="0 0 128 128"><path d="M94 93h19V46H15V93H32V68H94ZM41 78H86m0 20H67M40 88H86M99 53h8v8H99Z"/><path d="M92 46V20H34V46M94 93v16H32V93" fill="none"/></symbol>
<symbol id="puzzle-solid" viewBox="0 0 128 128"><path d="M93 31q-7 0-7-7A11 11 90 1064 24q0 7-7 7H38q-7 0-7 7V51q0 7-7 7a11 11 90 100 22q7 0 7 7v20q0 7 7 7H57q7 0 7-7a11 11 90 1122 0q0 7 7 7h14q7 0 7-7V88q0-7-7-7a11 11 90 110-22q7 0 7-7V38q0-7-7-7Z"/></symbol>
<symbol id="quote-close-solid" viewBox="0 0 128 128"><path d="M58 41q8 46-28 61-13 4-2-4Q50 82 47 63 22 71 17 51T32 26 58 41z" id="id8"/><use href="#id8" x="52"/></symbol>
<symbol id="quote-open-solid" viewBox="0 0 128 128"><path d="M18 87q6 20 26 15T59 77 29 65Q26 46 48 30q11-8-2-4Q10 41 18 87" id="id9"/><use href="#id9" x="52"/></symbol>
<symbol id="record-solid" viewBox="0 0 128 128"><circle cx="64" cy="64" r="36"/></symbol>
<symbol id="recycle-bin-solid" viewBox="0 0 128 128"><path d="M23 28H52a1 1 0 0125 0h27Zm81 8H24l4 76h72Z"/><path d="M58 59q12-7 22 6-5-22-25-13l-2-6-6 14 13 5Z" id="id10" stroke-width="2" fill="#000"/><use href="#id10"/><use href="#id10" transform="rotate(120 63 75)"/><use href="#id10" transform="rotate(240 63 75)"/></symbol>
<symbol id="recycle-sharp-solid" viewBox="0 0 128 128"><path d="m58 52-25-9 10-23 5 10q35-18 42 21-17-25-37-10Z" id="id11"/><use href="#id11"/><use href="#id11" transform="rotate(120 61 68)"/><use href="#id11" transform="rotate(240 61 68)"/></symbol>
<symbol id="recycle-solid" viewBox="0 0 128 128"><path d="m58 52-25-9 10-23 5 10q35-18 42 21-17-25-37-10Z" id="id12"/><use href="#id12"/><use href="#id12" transform="rotate(120 61 68)"/><use href="#id12" transform="rotate(240 61 68)"/></symbol>
<symbol id="rewind-solid" viewBox="0 0 128 128"><path d="M68 57V28L28 64l40 36V71l32 29V28Z"/></symbol>
<symbol id="rocket-solid" viewBox="0 0 128 128"><path d="M45 98Q-1 129 30 83ZM83 37a1 1 0 000 15 1 1 0 000-15m23-23q8 0 8 7 0 26-31 55 0 26-23 38V91L37 68H14Q28 45 52 45q28-31 54-31"/></symbol>
<symbol id="rss-solid" viewBox="0 0 128 128"><path d="M16 69q43 0 43 43H78q0-61-62-61Zm0-35q76 0 76 78h19q0-96-95-96ZM28 88a1 1 0 000 24 1 1 0 000-24"/></symbol>
<symbol id="save-solid" viewBox="0 0 128 128"><path d="M42 78H85m0 11H42m0 11H83m15 13V61H29v52M72 41h8V20H72ZM88 15V46H38V15Zm21 15v84H15V15H31V53H95V15h4Z"/></symbol>
<symbol id="server-solid" viewBox="0 0 128 128"><path d="M18 23h92V44H18Zm83 11H88M31 29a1 1 90 000 9 1 1 90 000-9m21 0a1 1 90 000 9 1 1 90 000-9m21 0a1 1 90 000 9 1 1 90 000-9" id="id13"/><use href="#id13" y="30"/><use href="#id13" y="60"/></symbol>
<symbol id="settings-solid" viewBox="0 0 128 128"><circle cx="30" cy="50" r="11" id="id14"/><path d="M30 14V114M64 14V114M98 14V114"/><use href="#id14"/><use href="#id14" x="34" y="35"/><use href="#id14" x="68" y="-15"/></symbol>
<symbol id="settings-wrench-solid" viewBox="0 0 128 128"><path d="M62 47c6-14-3-39-32-30L46 34l-3 9-9 3L17 30C8 59 33 68 47 62l50 50c6 6 21-9 15-15Zm37 56a1 1 0 010-8 1 1 0 010 8Z"/></symbol>
<symbol id="share-solid" viewBox="0 0 128 128"><path d="M87 29a13 13 90 112 5L44 64 89 93a13 13 90 11-2 6L40 69a13 13 0 110-10L87 29"/></symbol>
<symbol id="shield-solid" viewBox="0 0 128 128"><path d="M64 14q11 17 42 12 2 70-42 87Q20 96 22 26q30 5 42-12Z"/></symbol>
<symbol id="signpost-choices-solid" viewBox="0 0 128 128"><path d="M60 27V18h8v9Zm20 0V47H34L28 37l6-10ZM68 57V47H60V57ZH97l5 10-5 10H47V57Zm-8 56V77h8v36Z"/></symbol>
<symbol id="signpost-left-solid" viewBox="0 0 128 128"><path d="M60 27V18h8v9Zm20 0V47H34L28 37l6-10ZV47M60 113V47h8v66Z"/></symbol>
<symbol id="signpost-right-solid" viewBox="0 0 128 128"><path d="M68 27V18h-8v9Zm-20 0V47H94l6-10-6-10ZV47m20 66V47h-8v66Z"/></symbol>
<symbol id="snail-solid" viewBox="0 0 128 128"><path d="M75 33Q42 35 42 74q6 17 26 12-18-16-5-34c6-8 30-13 34 3q4 18-17 18c-11 0-13-15 1-13-7-2-10 8 1 9 15 1 17-18 1-21-16-2-29 14-19 29 7 13 37 19 43-4q11-42-32-40ZM31 33q8 6 3 25-3 4-6 1 3-15-4-24c1-9-16 0-3 3q6 6 3 18-8 47 22 46h67q-4-16-18-12-14 3-23-2Q35 98 38 58q5-21-4-28c-1-9-14 2-3 3Z"/></symbol>
<symbol id="square-small-solid" viewBox="0 0 128 128"><path d="M35 35h58v58H35Z"/></symbol>
<symbol id="square-solid" viewBox="0 0 128 128"><path d="M16 16h96v96H16Z"/></symbol>
<symbol id="star-half-solid" viewBox="0 0 128 128"><path d="M50 50H15L41 77 28 113 64 93V15Z"/></symbol>
<symbol id="star-solid" viewBox="0 0 128 128"><path d="M50 50H15L41 77 28 113 64 93l36 20L89 77l24-27H78L64 15Z"/></symbol>
<symbol id="sticker-solid" viewBox="0 0 128 128"><path d="M46 111A50 50 0 1014 57Zc8-21-8-53-32-54"/></symbol>
<symbol id="sticky-note-solid" viewBox="0 0 128 128"><path d="M87 16l25 25v71H16V16H87V41h25"/></symbol>
<symbol id="stop-solid" viewBox="0 0 128 128"><path d="M28 28h72v72H28Z"/></symbol>
<symbol id="suitcase-solid" viewBox="0 0 128 128"><path d="M42 56h5v5h4V56H88V52H42ZM59 34V20H69V34h5V15H54V34Zm33 0q3 0 3 3v67q0 3-3 3H38q-3 0-3-3V37q0-3 3-3ZM44 107c0 9 10 9 10 0m20 0c0 9 10 9 10 0"/></symbol>
<symbol id="sun-solid" viewBox="0 0 128 128"><circle cx="64" cy="64" r="26"/><path d="m39 89-7 7m7-57-7-7m64 64-7-7m7-57-7 7M30 64H17m94 0H98M64 98v13m0-94v13"/></symbol>
<symbol id="team-solid" viewBox="0 0 128 128"><circle cx="64" cy="46" r="20"/><path d="M38 39a11 11 90 103 19M90 39A11 11 90 1187 58M79 68c5-3 24-6 33 13M49 68c-5-3-24-6-33 13m8 20c13-37 66-37 79 0"/></symbol>
<symbol id="thumb-down-solid" viewBox="0 0 128 128"><path d="M66 92c-10 20 4 24 7 19Q84 88 93 79t2-53q-1-9-13-10t-45 0q-7 6-3 13-6 8-1 14-6 9-1 15-5 10 2 14 4 2 35 1 5 1-3 19"/></symbol>
<symbol id="thumb-up-solid" viewBox="0 0 128 128"><path d="M62 36c10-20-4-24-7-19Q44 40 35 49t-2 53q1 9 13 10t45 0q7-6 3-13 6-8 1-14 6-9 1-15 5-10-2-14-4-2-35-1-5-1 3-19"/></symbol>
<symbol id="trash-solid" viewBox="0 0 128 128"><path d="M23 28H52a1 1 0 0125 0h27Zm81 8H24l4 76h72Z"/></symbol>
<symbol id="tree-pine-solid" viewBox="0 0 128 128"><path d="M80 68H92L74 44H84L64 15 44 44H54L36 68H48L34 88q30 5 60 0ZM64 91v22"/></symbol>
<symbol id="tree-solid" viewBox="0 0 128 128"><path d="M50 47q12 2 14 24m0 7A1 1 0 0130 65a1 1 0 013-23A1 1 0 0167 25 1 1 0 01100 45 1 1 0 0164 78" fill="#000"/><path d="M64 114V71"/></symbol>
<symbol id="tree3-solid" viewBox="0 0 128 128"><path d="M82 77c2 16-38 16-36 0-11 1-15-24-3-28-12-1-1-27 9-24-8-14 32-14 24 0 10-3 21 23 9 24 12 4 8 29-3 28ZM64 89v24"/></symbol>
<symbol id="tree4-solid" viewBox="0 0 128 128"><path d="M64 87c-12 5-22 1-26-12-9 4-23-26-4-32-13-11 8-27 16-19-6-13 34-13 28 1 8-9 29 7 16 18 18 6 5 36-5 32-3 13-13 17-25 12v26"/></symbol>
<symbol id="triangle-solid" viewBox="0 0 128 128"><path d="M64 22l49 83H15Z"/></symbol>
<symbol id="tshirt-clothing-solid" viewBox="0 0 128 128"><path d="M47 15q17 23 34 0h3q10 0 29 14V59L94 54v59H34V54L15 59V29Q34 15 44 15Z"/></symbol>
<symbol id="unicorn-solid" viewBox="0 0 128 128"><path d="M95 88c11 3 15-12 8-15L79 54q-2-7-9-9 17-11 36-24 10-8 2-6-21 9-43 20 3-14-5 2 0-21-5-6-3 8-8 11Q23 62 19 94q-3 19 11 19H87q9 0-17-31 7 5 19 4Z"/></symbol>
<symbol id="user-solid" viewBox="0 0 128 128"><circle cx="64" cy="42" r="26"/><path d="M16 112c17-44 80-44 96 0"/></symbol>
<symbol id="users-solid" viewBox="0 0 128 128"><circle cx="57" cy="46" r="22"/><path d="M74 72c6-3 29-8 39 15M15 103c14-37 68-37 83 0M85 38A12 12 90 1182 60"/></symbol>
<symbol id="vimeo-solid" viewBox="0 0 128 128"><path d="M113 42c1-13-4-19-14-19-14-1-23 7-28 23 6-3 15-4 14 6 0 4-2 9-6 15C67 85 64 79 58 39c-2-11-6-16-14-15-7 0-17 11-29 21l5 6c4-3 7-4 8-4 6 0 9 16 17 45 4 10 9 15 14 15 10 0 21-8 34-26 13-16 20-29 20-39Z"/></symbol>
<symbol id="whatsapp-solid" viewBox="0 0 128 128"><path d="M50 59q9 15 22 19c7-9 5-8 13-4s8 6 3 12c-8 7-18 7-36-8-9-8-19-20-13-32 3-6 7-8 10-4 9 11 7 11 1 17m13 54q-12 0-22-6l-26 6 6-25C3 54 26 14 64 15a1 1 90 01-1 98"/></symbol>
<symbol id="wifi-down-solid" viewBox="0 0 128 128"><path d="M64 108l50-56A75 75 90 0014 46Z"/></symbol>
<symbol id="wordpress-solid" viewBox="0 0 128 128"><circle cx="64" cy="64" r="50" fill="none" stroke="#000" stroke-width="4"/><path d="M102 43q12 34-15 58l13-37q4-11 2-21M66 65l12 40s0 0 0 0q-14 5-27 0Zm28-4q0 5-5 16L83 91 67 43h5c3 0 3-3 0-3H51c-3 0-3 3 0 3h5l8 19L53 91 37 43h5c3 0 3-3 0-3H29Q39 21 64 21q21 1 28 11-9 0-9 8 0 7 5 11t6 10ZM21 64q0-11 3-19l22 57Q22 89 21 64Z"/></symbol>
<symbol id="wordpress2-solid" viewBox="0 0 128 128"><path d="M106 40q13 38-18 66l15-42q4-12 3-24M66 65l13 44s0 0 0 0q-15 6-30 0Zm31-4q0 6-6 18L85 94 67 40h6c3 0 3-3 0-3H49c-3 0-3 3 0 3h6l9 21L52 94 34 40h6c3 0 3-3 0-3H25Q36 16 64 16q23 1 30 12-9 0-9 9 0 8 6 12t6 12ZM16 64q0-12 3-21l24 63Q17 92 16 64Z"/></symbol>
<symbol id="writing-pen-solid" viewBox="0 0 128 128"><path d="M83 17q-7 0-7 8l30 30q8 0 8-7L83 17m-7 8L46 39 29 104 63 67a7 7 90 112 2L29 104 91 87l15-32" fill="#000"/><path d="M14 24c32 15-17 69 7 86" stroke="#000"/></symbol>
<symbol id="x-why-not-leave-solid" viewBox="0 0 128 128"><path d="m94 17h16L75 57l41 54H84l-25-33-29 33H14l37-43-39-52h33l23 30zm-6 85h9L40 26H30z"/></symbol>
<symbol id="xing-solid" viewBox="0 0 128 128"><path d="M37 87q2 0 5-5L56 57 46 41q-2-3-4-3H28q-4 0-2 3L36 57 21 83q-2 4 2 4H37ZM89 17q-2 0-4 3L55 73l20 36q2 3 4 3H93q3 0 2-3L75 73l32-53q2-3-2-3Z"/></symbol>
<symbol id="youtube-solid" viewBox="0 0 128 128"><path d="M52 78V46L81 61Zm60-47H16V94h96Z"/></symbol>
</svg>