<?xml version="1.0" encoding="UTF-8"?>
<svg xmlns="http://www.w3.org/2000/svg" style="display:none;">
<symbol id="accessibility" viewBox="0 0 128 128"><path d="M94 89q11-4 13 1-8 5-16 7-12-27-15-26-20 5-22 3M48 48q-2 8 2 20 9 10-2 9-5-5-8-20-2-19 0-25a9 9 90 118 2q-1 5 4 9 3 2 4 14 0 8 9 7 8-2 16-1 5 1 13 26M82 96A30 30 0 1134 61M29 35 39 85l34-6 14 26 17-5"/></symbol>
<symbol id="activity" viewBox="0 0 128 128"><path d="M14 64H32L47 25l31 79L94 64h20"/></symbol>
<symbol id="alert" viewBox="0 0 128 128"><path d="M64 75V30m0 57a5 5 90 010 12 5 5 90 010-12"/><circle cx="64" cy="64" r="50"/></symbol>
<symbol id="apple" viewBox="0 0 128 128"><path d="M102 90s-2 6-7 12-8 12-15 12c-6 0-9-4-15-4s-11 4-16 4-8-4-13-9C25 91 20 68 26 56S41 41 47 41s12 4 16 4 10-4 17-4 15 3 19 10q-22 20 3 39M82 14Q81 33 63 36q1-21 19-22"/></symbol>
<symbol id="arrow-down-left" viewBox="0 0 128 128"><path d="m104 24-79 79m55 0H25V48"/></symbol>
<symbol id="arrow-down-right" viewBox="0 0 128 128"><path d="m24 24 79 79m-55 0h55V48"/></symbol>
<symbol id="arrow-down" viewBox="0 0 128 128"><path d="m64 15v98m39-39-39 39-39-39"/></symbol>
<symbol id="arrow-down2" viewBox="0 0 128 128"><path d="m24 45 40 41 40-41"/></symbol>
<symbol id="arrow-left" viewBox="0 0 128 128"><path d="m54 25-39 39 39 39M15 64h98"/></symbol>
<symbol id="arrow-left2" viewBox="0 0 128 128"><path d="M83 24 42 64l41 40"/></symbol>
<symbol id="arrow-right" viewBox="0 0 128 128"><path d="M15 64h98M74 25l39 39-39 39"/></symbol>
<symbol id="arrow-right2" viewBox="0 0 128 128"><path d="m45 24 41 40-41 40"/></symbol>
<symbol id="arrow-up-left" viewBox="0 0 128 128"><path d="m25 80V25h55m-55 0 79 79"/></symbol>
<symbol id="arrow-up-right" viewBox="0 0 128 128"><path d="m103 80V25H48m55 0-79 79"/></symbol>
<symbol id="arrow-up" viewBox="0 0 128 128"><path d="m64 113V15M25 54l39-39 39 39"/></symbol>
<symbol id="arrow-up2" viewBox="0 0 128 128"><path d="m24 83 40-41 40 41"/></symbol>
<symbol id="audio" viewBox="0 0 128 128"><path d="M63 18q0-5-5-1L33 42H18q-4 0-4 4V80q0 4 4 4H33l26 27q4 4 4-1Zm30 5-5 5q36 36 0 72l5 5q42-41 0-82ZM79 39l-5 5q19 20 0 40l5 5q23-25 0-50Z"/></symbol>
<symbol id="back-arrow" viewBox="0 0 128 128"><path d="m55 49V26L15 64l40 37V76m0-27q56 0 58 53-25-39-58-26"/></symbol>
<symbol id="basket" viewBox="0 0 128 128"><path d="M45 17Q22 24 17 54l9 57h74l11-57q-7-30-28-37M17 54h94M84 66v35M44 66v35M64 66v35"/></symbol>
<symbol id="battery-power" viewBox="0 0 128 128"><path d="M33 93q-8 0-8-10V42q0-9 8-9h72q7 0 7 7V85q0 8-7 8ZM62 59 77 39 74 57l6 6L62 87l7-21-7-7M25 76H17q-4-14 0-27h8Z"/></symbol>
<symbol id="battery" viewBox="0 0 128 128"><path d="M35 37q0-7 10-7H86q9 0 9 8v72q0 7-7 7H42q-7 0-7-6Zm17-7V22q13-4 26 0v8ZH45 86ZH86Z"/></symbol>
<symbol id="bell" viewBox="0 0 128 128"><path d="M98 79a1 1 90 010 15H30a1 1 90 010-15l2.5-41a35 35 90 0163 0ZM80 94A6 6 0 1148 94"/></symbol>
<symbol id="blind" viewBox="0 0 128 128"><circle cx="64" cy="64" r="20"/><path d="M14 64q50 57 100 0Q64 4 14 64Zm2 48 96-96"/></symbol>
<symbol id="bluesky" viewBox="0 0 128 128"><path d="M111 21q4 1 0 40-4 15-29 12 29 7 18 25-24 28-36-13m0-24c19-31 36-44 47-40M17 21q-4 1 0 40 4 15 29 12-29 7-18 25 24 28 36-13m0-24C45 30 28 17 17 21"/></symbol>
<symbol id="bluetooth" viewBox="0 0 128 128"><path d="M40 39 88 89 64 114V14L88 38 40 88"/></symbol>
<symbol id="book-open" viewBox="0 0 128 128"><path d="M14 103q20 0 50 11V26q9-10 50-12v89q-21-1-50 11V26Q55 16 14 14Z"/></symbol>
<symbol id="book" viewBox="0 0 128 128"><path d="M51 104V45M26 24 87 14q0 9 13 14M38 38v76m0-76q-9-4-12-14v77q3 10 12 13l62-10V28ZM63 58l27-4m0 20-27 4"/></symbol>
<symbol id="bookmark" viewBox="0 0 128 128"><path d="M30 114 64 99l34 15V14H30V114Z"/></symbol>
<symbol id="box-open" viewBox="0 0 128 128"><path d="M64 40l50-10V92L64 110Zv70L14 89V29ZM14 29 64 40l50-10L68 18ZM81 77V57l19-5V71ZM68 18V39"/></symbol>
<symbol id="box-plain" viewBox="0 0 128 128"><path d="M64 40l50-10V92L64 110Zv70L14 89V29ZM14 29 64 40l50-10L68 18Z"/></symbol>
<symbol id="box-sealed" viewBox="0 0 128 128"><path d="M64 40l50-10V92L64 110Zv70L14 89V29ZM14 29 64 40l50-10L68 18ZM81 77V57l19-5V71Zm6-54L37 34"/></symbol>
<symbol id="calendar-1st" viewBox="0 0 128 128"><path d="M51 25H77m7 0V35H77V15h7V25h29v88H15V25H44V15h7V35H44V25M15 47h98M50 65l14-9v47m14 0H50"/></symbol>
<symbol id="calendar-31st" viewBox="0 0 128 128"><path d="M51 25H77m7 0V35H77V15h7V25h29v88H15V25H44V15h7V35H44V25M15 47h98M72 65l14-9v47m12 0H71M28 57H53L38 75c28-2 24 35-8 27"/></symbol>
<symbol id="calendar-date" viewBox="0 0 128 128"><path d="M51 25H77m7 0V35H77V15h7V25h29v88H15V25H44V15h7V35H44V25M15 47h98M54 54v59M74 54v59m20 0V54M34 113V54M15 69h98m0 15H15m0 15h98m0-45H15M77 87l14 9m0-9-14 9"/></symbol>
<symbol id="calendar-plain" viewBox="0 0 128 128"><path d="M51 25H77m7 0V35H77V15h7V25h29v88H15V25H44V15h7V35H44V25M15 47h98"/></symbol>
<symbol id="calendar" viewBox="0 0 128 128"><path d="M51 25H77m7 0V35H77V15h7V25h29v88H15V25H44V15h7V35H44V25M15 47h98M54 54v59M74 54v59m20 0V54M34 113V54M15 69h98m0 15H15m0 15h98m0-45H15"/></symbol>
<symbol id="cart-big" viewBox="0 0 128 128"><path d="M53 50V69m20 0V50m20 0V69m13 20H95a1 1 90 010 16 1 1 90 010-16H51a1 1 90 010 16 1 1 90 010-16H38a1 1 90 010-10M34 39h78l-4 40H38L34 39ZQ28 26 16 25"/></symbol>
<symbol id="cart-small" viewBox="0 0 128 128"><path d="M16 27q13 0 15 14m0 0 8 40h66l7-40H31Zm8 40a1 1 90 000 10H50a6 6 90 101 0H94a6 6 90 101 0h11"/></symbol>
<symbol id="certificate" viewBox="0 0 128 128"><circle cx="86" cy="58" r="15"/><path d="M14 30H114V99H14ZM31 49H63m0 17H31m0 17H55M74 67V89l12-5 12 5V67M78 60l5 5 12-9"/></symbol>
<symbol id="certified-copy" viewBox="0 0 128 128"><circle cx="69" cy="67" r="15"/><path d="M57 76V98l12-5 12 5V76M61 67l5 5 12-9m24-21L82 24m0 0V42h20v71H37V24Zm1-9H27v92"/></symbol>
<symbol id="certified-document" viewBox="0 0 128 128"><path d="M101 33 83 15m0 0V33h18v80H26V15ZM52 71V93l12-5 12 5V71M56 62l5 5 12-9"/><circle cx="64" cy="62" r="15"/></symbol>
<symbol id="certified-security" viewBox="0 0 128 128"><path d="M52 67V89l12-5 12 5V67M56 60l5 5 12-9M64 14q11 17 42 12 2 70-42 87Q20 96 22 26q30 5 42-12Z"/><circle cx="64" cy="58" r="15"/></symbol>
<symbol id="certified" viewBox="0 0 128 128"><path d="M49 90H36ZH36m0-17H61M74 93v13l8-4 8 4V93M77 82l4 4 6-8M36 61H92m0-12H36M55 31H36m65 2L83 15m0 0V33h18v80H26V15Z"/><circle cx="82" cy="81" r="13"/></symbol>
<symbol id="certified2" viewBox="0 0 128 128"><path d="M40 67v45L64 99l24 13V67M48 49 59 60 80 37"/><circle cx="64" cy="48" r="30"/></symbol>
<symbol id="circle-heart" viewBox="0 0 128 128"><circle cx="64" cy="64" r="50"/><path d="M64 87c37-21 30-58 0-37-29-20-36 18 0 37"/></symbol>
<symbol id="circle-tick" viewBox="0 0 128 128"><path d="M28 68l22 22 42-46"/><circle cx="64" cy="64" r="50"/></symbol>
<symbol id="circle-tree-roots" viewBox="0 0 128 128"><circle cx="64" cy="64" r="50"/><path d="M55 46q8 3 9 21m0 5A1 1 90 0141 58a1 1 90 012-18 1 1 90 0124-6A1 1 90 0189 45 1 1 90 0164 72M75 51q-4 2-11 16V92c8 1 16 7 21 6M64 92c-10 5-14 1-21 6m21-6q-7 6-7 10m7-10q7 6 7 10"/></symbol>
<symbol id="circle-tree" viewBox="0 0 128 128"><circle cx="64" cy="64" r="50"/><path d="M54 52q10 1 11 19m0 5A1 1 90 0142 62a1 1 90 012-18A1 1 90 0168 33 1 1 90 0191 49 1 1 90 0165 76M79 59q-7-2-14 12v34"/></symbol>
<symbol id="circle" viewBox="0 0 128 128"><circle cx="64" cy="64" r="50"/></symbol>
<symbol id="clipboard" viewBox="0 0 128 128"><path d="M52 28H31v86H99V28H76v4H52V28q0-6 8-6a5 5 0 118 0q8 0 8 6M44 52H86M44 72H86M44 92H86"/></symbol>
<symbol id="clipboard2" viewBox="0 0 128 128"><path d="M52 28H31v86H99V28H76v4H52V28q0-6 8-6a5 5 0 118 0q8 0 8 6"/></symbol>
<symbol id="clock" viewBox="0 0 128 128"><path d="M64 15a1 1 0 000 98 1 1 0 000-98m0 7v6m20 0h0m17 16h0m-73 0h0m17-16h0m19 79v-7m20 0h0m17-16h0m6-20h-6m-73 0h-6m6 20h0m16 16h0m20-64v28l19 12"/></symbol>
<symbol id="clock2" viewBox="0 0 128 128"><path d="M83 76 64 64V36M22 64h6m73 0h6M64 100v7m0-79V22m0-7a1 1 0 010 98 1 1 0 010-98"/></symbol>
<symbol id="close" viewBox="0 0 128 128"><path d="M86 86 41 41m1 45L87 41"/></symbol>
<symbol id="cloud" viewBox="0 0 128 128"><path d="m90 52a21 21 90 014 42H37a16 16 90 112-46 27 27 90 0151 4z"/></symbol>
<symbol id="cog" viewBox="0 0 128 128"><path d="M59 18h9l5 15a32 32 90 015 2l13-9 6 5-6 15a32 32 90 012 5l17 2 1 8-14 7a32 32 90 01-1 6l11 10-5 8-15-4a32 32 90 01-4 4l1 16-8 2-9-12a32 32 90 01-5 0l-9 12-7-2 1-16a32 32 90 01-5-4L27 92l-5-8L33 74a32 32 90 01-1-6L18 61l2-8 16-2a32 32 90 013-5L32 31l7-5 12 9a32 32 90 016-2Zm5 32a14 14 90 000 29 14 14 90 000-29"/></symbol>
<symbol id="computer-pc" viewBox="0 0 128 128"><path d="M101 38h13V97H89V81m12 0H14V30h87ZM62 81v9H80v7H37V90H55V81Z"/></symbol>
<symbol id="copy" viewBox="0 0 128 128"><path d="M102 42 82 24m0 0V42h20v71H37V24Zm1-9H27v92"/></symbol>
<symbol id="deaf" viewBox="0 0 128 128"><path d="M34 92a1 1 90 0037 5c1-29 26-28 26-50A1 1 90 0031 47m48-6Q61 17 45 51q33-8 23 13Q55 94 41 74M16 112l96-96"/></symbol>
<symbol id="discord" viewBox="0 0 128 128"><path d="M44 92l-5 11L18 92q-4-2-4-8 1-30 13-49 2-3 6-5l16-4 4 7q11-3 22 0l4-7 16 5q4 1 6 5 12 19 13 49 0 6-4 8L89 104 84 93M38 88q26 14 54 0M47 77c-11 0-11-20 0-20s11 20 0 20Zm34 0c-11 0-11-20 0-20s11 20 0 20Z"/></symbol>
<symbol id="download" viewBox="0 0 128 128"><path d="m23 73v36h82V73M64 21v71m28-28-28 28-27-28"/></symbol>
<symbol id="ear" viewBox="0 0 128 128"><path d="M34 92a1 1 90 0037 5c1-29 26-28 26-50A1 1 90 0031 47m48-6Q61 17 45 51q33-8 23 13Q55 94 41 74"/></symbol>
<symbol id="earth" viewBox="0 0 128 128"><circle cx="64" cy="64" r="50"/><path d="M49 22s-5-3 0-5Zm5-7q2 8-3 11-5 4 5 4 2 5 7 5 7 0 7-5 2-1 5 0s0 4 1 4q4 4 4 7 1 4-7 4c-6 0-7-7-14-9q-6 1-9 3-11 0-10 8c-2 8-3 7 1 11s9 1 15 16 2 8 5 20c1 3 4 3 5 5q2 1 3 0c2-1 3-2 5-5q6-7 6-10V75c0-3 12-10 10-12q-8-10-2-5c6 7 7-4 7-8q4-1 7 0 4 13 6 3c2-3 2-3 4-1M15 68c14 2 3 9 4 18"/></symbol>
<symbol id="eco-battery" viewBox="0 0 128 128"><path d="M33 31H50V18Q64 13 78 18V31H96V113H33ZM42 85C55 76 68 67 74 54M52 78C47 75 32 59 82 38 96 72 64 84 52 78ZM52 91H42V105H52M42 98H51M67 91H64A1 1 0 0064 105H67M80 91A1 1 0 0080 105 1 1 0 0080 91"/></symbol>
<symbol id="eco-battery2" viewBox="0 0 128 128"><path d="M35 37Q35 30 45 30H86Q95 30 95 38V110Q95 117 88 117H42Q35 117 35 111zM52 30 52 22Q65 18 78 22V30zM54 43H45V57H54M45 50H53M67 43H65A1 1 0 0066 57H68M79 43A1 1 0 0079 57 1 1 0 0079 43ZM42 83H87V65H42ZM87 90V109H42V90Z"/></symbol>
<symbol id="eco-battery3" viewBox="0 0 128 128"><path d="M33 93q-8 0-8-10V42q0-9 8-9h72q7 0 7 7V85q0 8-7 8ZM47 56H38V70h9m-9-7h8m14-7H58a1 1 0 001 14h2M72 56a1 1 0 000 14 1 1 0 000-14Zm12 3 15-20-3 18 6 6L84 87l7-21-7-7M25 77H17q-4-14 0-27h8Z"/></symbol>
<symbol id="eco-label" viewBox="0 0 128 128"><path d="M81 99q33 0 33-33V41q0-11-10-11H64Q13 30 13 64V88q0 11 9 11Zm9-48c16 0 15 28 0 28S75 51 90 51M70 79H66c-19 0-19-28-1-28h4M39 63H25M43 79H25V51H43"/></symbol>
<symbol id="eco-pc" viewBox="0 0 128 128"><path d="M101 38h13V97H89V81m12 0H14V30h87ZM62 81v9H80v7H37V90H55V81ZM40 41H23V70H40M23 55H37M63 41H59c-15 0-16 29 1 29h4M82 41c-14 0-14 29 0 29s14-29 0-29Zm19 48h2"/></symbol>
<symbol id="edit" viewBox="0 0 128 128"><path d="M103 105H22M41 65 59 83m0-11L95 36m9 2A40 40 0 0085 21L41 65 34 89l25-6 45-45"/></symbol>
<symbol id="email-at" viewBox="0 0 128 128"><path d="M85 64q0 21-21 21T43 64 64 43 85 64v10c3 17 28 12 28 0V64q0-49-49-49T15 64t49 49q21-1 28-9"/></symbol>
<symbol id="email" viewBox="0 0 128 128"><path d="M64 74l48-45V99H16V29h96ZL16 29Z"/></symbol>
<symbol id="equals" viewBox="0 0 128 128"><path d="M30 47H96m0 34H30 96"/></symbol>
<symbol id="exclamation-mark" viewBox="0 0 128 128"><path d="M64 78V15m0 80a7 7 90 010 17 7 7 90 010-17"/></symbol>
<symbol id="eye" viewBox="0 0 128 128"><circle cx="64" cy="64" r="20"/><path d="M14 64q50 57 100 0Q64 4 14 64Z"/></symbol>
<symbol id="facebook" viewBox="0 0 128 128"><path d="M69 70v43H51V70H37V52H51V37s0-22 22-22H87V34H77c-4 0-7 4-7 7V52H87L84 70Z"/></symbol>
<symbol id="folder" viewBox="0 0 128 128"><path d="M115 103H14V25H46L57 36h58Z"/></symbol>
<symbol id="forbidden" viewBox="0 0 128 128"><circle cx="64" cy="64" r="50"/><path d="m30 30 68 68"/></symbol>
<symbol id="forward-arrow" viewBox="0 0 128 128"><path d="m73 49V26l40 38-40 37V76m0-27q-56 0-58 53 25-39 58-26"/></symbol>
<symbol id="github" viewBox="0 0 128 128"><path d="M75 114V96q0-5-5-7 29-7 19-38 2-10 0-14-5 0-14 5-12-5-23 0-10-5-14-5-2 5 0 14-10 31 19 38-5 2-5 7-10 2-14-5-3-5-10-5-5 1 3 6c5 3 3 13 22 12v10m0 0a50 50 90 1 1 22 0"/></symbol>
<symbol id="globe" viewBox="0 0 128 128"><path d="M114 64A50 50 0 1014 64a50 50 0 10100 0H14m8-27h84m0 54H22m36 22Q14 64 58 15m12 0q44 49 0 98"/></symbol>
<symbol id="greater-than" viewBox="0 0 128 128"><path d="M32 32 L96 64 L32 96"/></symbol>
<symbol id="hamburger" viewBox="0 0 128 128"><path d="M16 64h96m0 27H16m0-54h96"/></symbol>
<symbol id="hamburger2" viewBox="0 0 128 128"><path d="M22 64h84m0 27H22m0-54h84"/></symbol>
<symbol id="head" viewBox="0 0 128 128"><path d="M95 89q5 15 2 16l-26 8q-4 1-8-16-2-4-12-3-15 1-15-24c-13 0-11-4-1-21A33 33 90 1195 66q-6 8-1 20Z"/></symbol>
<symbol id="heart" viewBox="0 0 128 128"><path d="M64 106C-18 72 18-5 64 34c46-39 82 38 0 72Z"/></symbol>
<symbol id="help" viewBox="0 0 128 128"><path d="M64 87a5 5 90 010 12 5 5 90 010-12M49 40a18 18 90 1119 28q-4 0-4 4v8"/><circle cx="64" cy="64" r="50"/></symbol>
<symbol id="home" viewBox="0 0 128 128"><path d="m18 50 46-33 46 33v61H18zm30 61V65h31v46"/></symbol>
<symbol id="image" viewBox="0 0 128 128"><path d="M15 15h98v98H15Zm0 75L38 71 66 86 90 48l23 26M47 57a1 1 0 004-26A1 1 0 0047 57"/></symbol>
<symbol id="info" viewBox="0 0 128 128"><path d="M55 57h9V96M52 96H76M64 45a5 5-90 010-12 5 5-90 010 12"/><circle cx="64" cy="64" r="50"/></symbol>
<symbol id="info2" viewBox="0 0 128 128"><path d="M55 57h9V96M52 96H76M64 45a5 5-90 010-12 5 5-90 010 12"/></symbol>
<symbol id="key" viewBox="0 0 128 128"><path d="M31 49a13 13 90 004 4 13 13 90 10-4-4Zm83 56-9 9L55 64a27 27 90 119-9L85 76 98 63l8 8L93 84l7 7 6-6 8 8-6 6Z"/></symbol>
<symbol id="key2" viewBox="0 0 128 128"><path d="M98 69V83H82V69H56a22 22 90 110-10h58V69ZM31 55a10 10 90 1010 1A10 10 90 0031 55Z"/></symbol>
<symbol id="leaf-monitor" viewBox="0 0 128 128"><path d="M58 84q1 10-14 16v2H84v-2Q69 94 70 84Zm56-59H14V84H114ZM50 71c12 6 44-6 30-40C30 52 45 68 50 71M72 47C66 60 53 69 40 78"/></symbol>
<symbol id="leaf-shield" viewBox="0 0 128 128"><path d="M64 14q11 17 42 12 2 70-42 87Q20 96 22 26q30 5 42-12ZM45 85c13-9 26-18 32-31M55 78c-5-3-20-19 30-40C99 72 67 84 55 78"/></symbol>
<symbol id="leaf" viewBox="0 0 128 128"><path d="m19 113c27-18 55-37 66-65M40 99c-11-7-41-40 62-84 30 72-38 97-62 84"/></symbol>
<symbol id="less-than" viewBox="0 0 128 128"><path d="m96 32-64 32 64 32"/></symbol>
<symbol id="letter" viewBox="0 0 128 128"><path d="M49 90H36ZH36m0-17H61M36 61H92m0-12H36M55 31H36m65 2L83 15m0 0V33h18v80H26V15Z"/></symbol>
<symbol id="link" viewBox="0 0 128 128"><path d="M57 64a20 20 90 0 0 29 6l18-20a20 20 90 0 0-31-26L55 44" id="id1"/><use href="#id1"/><use href="#id1" transform="rotate(180 64 64)"/></symbol>
<symbol id="linkedin" viewBox="0 0 128 128"><path d="M111 112H90V80q0-14-10-14T70 80v32H51V50H69V60s6-10 20-10c12 0 22 10 22 26Zm-93 0H39V50H18ZM29 42a1 1 0 000-26 1 1 0 000 26Z"/></symbol>
<symbol id="list" viewBox="0 0 128 128"><path d="M26 30V42H14V30Zm87 6H39M26 57V69H14V57Zm87 6H39M26 84V96H14V84Zm87 6H39"/></symbol>
<symbol id="location" viewBox="0 0 128 128"><path d="m64 14c-22 0-40 18-40 40q0 13 9 23l31 37 31-37q9-10 9-23c0-22-18-40-40-40z"/><circle cx="64" cy="53" r="15"/></symbol>
<symbol id="locked" viewBox="0 0 128 128"><path d="M60 90q4-20 8 0v12H60ZM78 60V36A1 1 90 1047 36V60H33v53H95V60H33"/></symbol>
<symbol id="map" viewBox="0 0 128 128"><path d="m14 106 34-13 32 13 34-13V20l-34 13-32-13-34 13zm34-86v73m32-60v73"/></symbol>
<symbol id="mastodon" viewBox="0 0 128 128"><path d="M96 76V50q0-17-16-18-11-1-16 9-5-10-17-9-16 1-16 18V76H44V50q0-8 7-8t7 11V67H69V52q0-10 7-10t7 7V76Zm14-43q3 23 1 43-1 14-38 15-19-1-25-3 0 9 11 15 13 4 28 0v7q-23 5-44 0-17-6-23-25-7-34 0-52 3-12 17-14 26-5 56-1 16 2 17 15Z"/></symbol>
<symbol id="medium" viewBox="0 0 128 128"><path d="M114 86v9h-3Q93 95 91 72V69q2-23 21-23h2v3h-2q-10 0-10 16h12v2H102c0 9 5 17 12 19ZM91 31V30H72L54 73 35 30H14v1q6 1 6 6V89q0 5-6 6H29q-6-1-6-6V40L47 95h1L72 39V88q0 6-5 7H91q-5-1-5-7V37q0-4 5-6Z"/></symbol>
<symbol id="minus" viewBox="0 0 128 128"><path d="m32 64h64"/></symbol>
<symbol id="monitor-activity" viewBox="0 0 128 128"><path d="M39 53h9l8-19L72 74l7-21H89M58 84q1 10-14 16v2H84v-2Q69 94 70 84Zm56-59H14V84H114Z"/></symbol>
<symbol id="monitor-busy" viewBox="0 0 128 128"><path d="M58 84q1 10-14 16v2H84v-2Q69 94 70 84Zm56-59H14V84H114ZM88 55a1 1 90 010-9 1 1 90 010 9m18 2-6-4-6 11-10-4-7 5m0 4h29V40H77ZM14 76H114m0-43H14ZM22 69H58V40H22ZM34 51l-6 4 6 4m8-12-4 16m8-4 6-4-6-4m24-6H65m0 10h5M65 65h5"/></symbol>
<symbol id="monitor-certified" viewBox="0 0 128 128"><circle cx="64" cy="46" r="15"/><path d="M52 55V77l12-5 12 5V55M56 46l5 5 12-9M58 84q1 10-14 16v2H84v-2Q69 94 70 84Zm56-59H14V84H114Z"/></symbol>
<symbol id="monitor-tick" viewBox="0 0 128 128"><path d="M58 84q1 10-14 16v2H84v-2Q69 94 70 84Zm56-59H14V84H114ZM41 55l16 16 30-33"/></symbol>
<symbol id="monitor" viewBox="0 0 128 128"><path d="M58 84q1 10-14 16v2H84v-2Q69 94 70 84Zm56-59H14V84H114Z"/></symbol>
<symbol id="moon" viewBox="0 0 128 128"><path d="m74 40 4 10 10 4-10 4-4 10-4-10-10-4 10-4z" id="x"/><use href="#x" x="24" y="-24" /><path d="m104 95A50 49 35 1150 16a54 50 35 0055 78z"/></symbol>
<symbol id="mute" viewBox="0 0 128 128"><path d="M66 18q0-5-5-1L33 42H18q-4 0-4 4V80q0 4 4 4H33l28 26q5 4 5-1ZM82 45 95 58l13-13 6 6-13 13 13 14-6 6L95 70 82 84l-6-6L89 64 76 51Z"/></symbol>
<symbol id="new-starburst" viewBox="0 0 128 128"><path d="M95 19q3 13 16 16-13 3-16 16-3-13-16-16 13-3 16-16M60 21q9 35 44 44-35 8-44 44-8-36-44-44 36-8 44-44"/></symbol>
<symbol id="note" viewBox="0 0 128 128"><path d="M14 30H114V99H14ZM31 49H97m0 17H31m0 17H67"/></symbol>
<symbol id="open-folder" viewBox="0 0 128 128"><path d="M16 102l7-57h91l-9 57H16L14 26H41l10 9h50l1 10"/></symbol>
<symbol id="origami" viewBox="0 0 128 128"><path d="M36 19 14 36V47H36m0 27L77 30h37L64 86ZV19L61 47m3 39 25 24V58"/></symbol>
<symbol id="package" viewBox="0 0 128 128"><path d="M64 54l50-20V91L64 113Zv59L14 91V34ZM14 34 64 54l50-20L64 14Z"/></symbol>
<symbol id="paper" viewBox="0 0 128 128"><path d="M26 15v98h75V33H83V15Zm57 0 18 18Z"/></symbol>
<symbol id="paperclip" viewBox="0 0 128 128"><path d="M78 37 45 71A1 1 0 0060 87l46-46A1 1 0 0084 20L23 82a1 1 0 0026 26l51-50"/></symbol>
<symbol id="phone" viewBox="0 0 128 128"><path d="M48 49q7 25 32 32c11-11 11-11 22 0s11 11 0 22c-5 5-16 16-54-22C10 38 21 32 26 27c11-11 11-11 22 0s11 11 0 22"/></symbol>
<symbol id="planet-heart" viewBox="0 0 128 128"><circle cx="64" cy="64" r="50"/><path d="M82 110c-45-25 16-16 18-52q2-20 12-7M15 68c41 0 5-20 13-28q16-8-2-8m14-12q12 20 45-1M64 87c37-21 30-58 0-37-29-20-36 18 0 37"/></symbol>
<symbol id="planet" viewBox="0 0 128 128"><circle cx="64" cy="64" r="50"/><circle cx="40" cy="86" r="7"/><path d="M82 110C16 40 86 80 96 64q1-10-15-14 7-22 31 1M15 68c41 0 5-20 13-28q16-8-2-8M40 20q12 20 45-1"/></symbol>
<symbol id="plus" viewBox="0 0 128 128"><path d="m64 32v64M32 64h64"/></symbol>
<symbol id="poop-emoji" viewBox="0 0 128 128"><ellipse cx="50" cy="65" rx="5" ry="10"/><ellipse cx="78" cy="65" rx="5" ry="10"/><path d="M43 89q20 18 41 0Zm59 25H29A1 1 90 0126 89a1 1 90 017-24Q25 41 48 41q22-2 11-27 28 1 18 28 23-2 18 23a1 1 90 015 24 1 1 90 012 25"/></symbol>
<symbol id="poop" viewBox="0 0 128 128"><path d="M102 114H29A1 1 90 0126 89a1 1 90 017-24Q25 41 48 41q22-2 11-27 28 1 18 28 23-2 18 23a1 1 90 015 24 1 1 90 012 25"/></symbol>
<symbol id="print" viewBox="0 0 128 128"><path d="M94 93h19V46H15V93H32V68H94Zv16H32V93m2-74H92V46H34Zm6 59H86m0 20H67M40 88H86m15-34h4"/></symbol>
<symbol id="question-mark" viewBox="0 0 128 128"><path d="M64 87V75q0-7 7-7A27 27 90 1042 27M64 96a8 8 90 000 17 8 8 90 000-17"/></symbol>
<symbol id="redo" viewBox="0 0 128 128"><path d="M103 61l10-12M103 61 91 55m12 6ZA44 44 90 1093 92"/></symbol>
<symbol id="rocket" viewBox="0 0 128 128"><path d="M45 98Q-1 129 30 83ZM83 37a1 1 0 000 15 1 1 0 000-15m23-23q8 0 8 7 0 26-31 55 0 26-23 38V91L37 68H14Q28 45 52 45q28-31 54-31"/></symbol>
<symbol id="rss" viewBox="0 0 128 128"><path d="M16 69q43 0 43 43H78q0-61-62-61Zm0-35q76 0 76 78h19q0-96-95-96ZM28 88a1 1 0 000 24 1 1 0 000-24"/></symbol>
<symbol id="save" viewBox="0 0 128 128"><path d="M42 78H85m0 11H42m0 11H83m15 13V61H29v52M70 40H81V21H70ZM88 15V46H38V15m75 15v84H15V15H99Z"/></symbol>
<symbol id="search" viewBox="0 0 128 128"><circle cx="54" cy="54" r="38"/><path d="m81 81 32 32"/></symbol>
<symbol id="selected" viewBox="0 0 128 128"><path d="M26 58 53 85l52-57M35 35H93V93H35Z"/></symbol>
<symbol id="server-stack" viewBox="0 0 128 128"><path d="M15 15h98V45H15Zm86 15H88M31 26a1 1 90 000 8 1 1 90 000-8m21 0a1 1 90 000 8 1 1 90 000-8m21 0a1 1 90 000 8 1 1 90 000-8" id="id3"/><use href="#id3" y="34"/><use href="#id3" y="68"/></symbol>
<symbol id="server" viewBox="0 0 128 128"><path d="M15 15h98V41H15Zm86 13H88M31 22a1 1 90 000 11 1 1 90 000-11m21 0a1 1 90 000 11 1 1 90 000-11m21 0a1 1 90 000 11 1 1 90 000-11" id="id4"/><use href="#id4" y="36"/><use href="#id4" y="72"/></symbol>
<symbol id="settings" viewBox="0 0 128 128"><circle cx="30" cy="50" r="11" id="c"/><path d="M30 14V39m0 22v53M64 14V74m0 22v18M98 14V24m0 22v68"/><use href="#c"/><use href="#c" x="34" y="35"/><use href="#c" x="68" y="-15"/></symbol>
<symbol id="shield" viewBox="0 0 128 128"><path d="M64 14q11 17 42 12 2 70-42 87Q20 96 22 26q30 5 42-12Z"/></symbol>
<symbol id="speech-bubble" viewBox="0 0 128 128"><path d="M63 113a1 1 90 001-98C26 14 3 54 21 88l-6 25 26-6q10 6 22 6"/></symbol>
<symbol id="sprout" viewBox="0 0 128 128"><path d="M24 113q40-40 80 0M64 93V63q0-5 5-13M23 26V36q2 25 26 26H59V52Q57 27 33 26H23M69 50H79q25-1 26-26V14H95Q71 15 69 40V50L90 27M38 40 59 62q4 2 5 8"/></symbol>
<symbol id="square-small" viewBox="0 0 128 128"><path d="M35 35h58v58H35Z"/></symbol>
<symbol id="square" viewBox="0 0 128 128"><path d="M15 15h98v98H15Z"/></symbol>
<symbol id="star" viewBox="0 0 128 128"><path d="m52 52H15l26 25-15 36 38-20 39 20-14-36 24-25H80L64 15z"/></symbol>
<symbol id="sticky-note" viewBox="0 0 128 128"><path d="M87 14l27 27v77H14V14H87V41h27"/></symbol>
<symbol id="sun" viewBox="0 0 128 128"><circle cx="64" cy="64" r="26"/><path d="m39 89-7 7m7-57-7-7m64 64-7-7m7-57-7 7M30 64H17m94 0H98M64 98v13m0-94v13"/></symbol>
<symbol id="target" viewBox="0 0 128 128"><path d="M88 40 60 69m29-37q-6 13 8 7l15-12q-11 1-10-10Zm0 18A40 40 90 1178 39M65 53a21 21 90 1011 11"/></symbol>
<symbol id="team" viewBox="0 0 128 128"><circle cx="64" cy="46" r="20"/><path d="M38 39a11 11 90 103 19M90 39A11 11 90 1187 58M79 68c5-3 24-6 33 13M49 68c-5-3-24-6-33 13m8 20c13-37 66-37 79 0"/></symbol>
<symbol id="thumb-down" viewBox="0 0 128 128"><path d="M66 92c-10 20 4 24 7 19Q84 88 93 79t2-53q-1-9-13-10t-45 0q-7 6-3 13-6 8-1 14-6 9-1 15-5 10 2 14 4 2 35 1 5 1-3 19"/></symbol>
<symbol id="thumb-down2" viewBox="0 0 128 128"><path d="M95 30a1 1 90 010-5 1 1 90 010 5M81 18q10-3 21-1 7 31 1 57H87M57 92q8-18 3-19-31 1-35-1-7-4-2-14-5-6 1-15-5-6 1-14-4-7 3-13 33-1 45 0T86 26q7 44-2 53T64 111c-3 5-17 1-7-19"/></symbol>
<symbol id="thumb-up" viewBox="0 0 128 128"><path d="M62 36c10-20-4-24-7-19Q44 40 35 49t-2 53q1 9 13 10t45 0q7-6 3-13 6-8 1-14 6-9 1-15 5-10-2-14-4-2-35-1-5-1 3-19"/></symbol>
<symbol id="thumb-up2" viewBox="0 0 128 128"><path d="M71 36c10-20-4-24-7-19Q53 40 44 49t-2 53q1 9 13 10t45 0q7-6 3-13 6-8 1-14 6-9 1-15 5-10-2-14-4-2-35-1-5-1 3-19M41 54H25q-6 26 1 57 11 2 21-1M33 98a1 1 0 000 5 1 1 0 000-5"/></symbol>
<symbol id="tick" viewBox="0 0 128 128"><path d="m14 65 34 34 65-71"/></symbol>
<symbol id="tickbox" viewBox="0 0 128 128"><path d="M37 66l20 20 38-41M15 15h98v98H15Z"/></symbol>
<symbol id="toggle-b" viewBox="0 0 128 128"><path d="M78 83H34a2 2 90 110-38H78a1 1 90 0131 38A1 1 90 0178 45"/></symbol>
<symbol id="toggle" viewBox="0 0 128 128"><path d="M50 83H94a2 2 90 100-38H50A1 1 90 0019 83 1 1 90 0050 45"/></symbol>
<symbol id="trash" viewBox="0 0 128 128"><path d="M48 53V92M80 53V92M64 53V92M23 28H52a1 1 0 0125 0h27Zm81 8H24l4 76h72Z"/></symbol>
<symbol id="tree-roots" viewBox="0 0 128 128"><path d="M51 43q10 4 13 26m0 8A1 1 90 0131 62a1 1 90 016-27A1 1 90 0166 25 1 1 90 0195 40 1 1 90 0164 77M77 49q-6 2-13 20v32c10 1 20 9 27 8m-27-8c-12 7-18 1-27 8m27-8q-9 8-9 12m9-12q9 8 9 12"/></symbol>
<symbol id="tree" viewBox="0 0 128 128"><path d="M50 47q12 2 14 24m0 7A1 1 0 0130 65a1 1 0 013-23A1 1 0 0167 25 1 1 0 01100 45 1 1 0 0164 78M82 56q-9-2-18 15v42"/></symbol>
<symbol id="tree2" viewBox="0 0 128 128"><path d="M64 78A1 1 0 0130 65a1 1 0 013-23A1 1 0 0167 25a1 1 0 0133 20A1 1 0 0164 78v35"/></symbol>
<symbol id="triangle" viewBox="0 0 128 128"><path d="M64 22l49 83H15Z"/></symbol>
<symbol id="trust" viewBox="0 0 128 128"><path d="M37 66l20 20 38-41M64 14q11 17 42 12 2 70-42 87Q20 96 22 26q30 5 42-12Z"/></symbol>
<symbol id="undo" viewBox="0 0 128 128"><path d="M25 61 15 49M25 61l13-7M25 61ZA44 44 90 1135 92"/></symbol>
<symbol id="unlocked" viewBox="0 0 128 128"><path d="M60 90q4-20 8 0v12H60ZM78 45 60 21A1 1 90 1033 41L47 60H33v53H95V60H33"/></symbol>
<symbol id="up-arrow" viewBox="0 0 128 128"><path d="M64 115.5V12ZM19 57 64 12l45 45"/></symbol>
<symbol id="upload" viewBox="0 0 128 128"><path d="m64 91V20M36 48l28-28 27 28M23 73v36h82V73"/></symbol>
<symbol id="user" viewBox="0 0 128 128"><circle cx="64" cy="42" r="26"/><path d="M16 112c17-44 80-44 96 0"/></symbol>
<symbol id="users" viewBox="0 0 128 128"><circle cx="57" cy="46" r="22"/><path d="M74 72c6-3 29-8 39 15M15 103c14-37 68-37 83 0M85 38A12 12 90 1182 60"/></symbol>
<symbol id="video" viewBox="0 0 128 128"><path d="M15 15h98v98H15ZM43 37V80L85 60ZM15 103h98m-80 0v10H43V103Z"/></symbol>
<symbol id="vimeo" viewBox="0 0 128 128"><path d="M113 42c1-13-4-19-14-19-14-1-23 7-28 23 6-3 15-4 14 6 0 4-2 9-6 15C67 85 64 79 58 39c-2-11-6-16-14-15-7 0-17 11-29 21l5 6c4-3 7-4 8-4 6 0 9 16 17 45 4 10 9 15 14 15 10 0 21-8 34-26 13-16 20-29 20-39Z"/></symbol>
<symbol id="warning" viewBox="0 0 128 128"><path d="M64 22l49 83H15Zm0 56V36m0 50a5 5 90 010 11 5 5 90 010-11"/></symbol>
<symbol id="whatsapp" viewBox="0 0 128 128"><path d="M50 59q9 15 22 19c7-9 5-8 13-4s8 6 3 12c-8 7-18 7-36-8-9-8-19-20-13-32 3-6 7-8 10-4 9 11 7 11 1 17m13 54q-12 0-22-6l-26 6 6-25C3 54 26 14 64 15a1 1 90 01-1 98"/></symbol>
<symbol id="wifi-down" viewBox="0 0 128 128"><path d="M64 108l50-56A75 75 90 0014 46Z"/></symbol>
<symbol id="wifi" viewBox="0 0 128 128"><path d="M29 67a50 50 90 0170 0M47 85a25 25 90 0135 0M14 46a75 75 90 01100 0M64 102v0"/></symbol>
<symbol id="writing-pen" viewBox="0 0 128 128"><path d="M83 17q-7 0-7 8l30 30q8 0 8-7L83 17m-7 8L46 39 29 104 63 67a7 7 90 112 2L29 104 91 87l15-32M14 24c32 15-17 69 7 86"/></symbol>
<symbol id="x-why-not-leave" viewBox="0 0 128 128"><path d="m94 17h16L75 57l41 54H84l-25-33-29 33H14l37-43-39-52h33l23 30zm-6 85h9L40 26H30z"/></symbol>
<symbol id="xing" viewBox="0 0 128 128"><path d="M37 87q2 0 5-5L56 57 46 41q-2-3-4-3H28q-4 0-2 3L36 57 21 83q-2 4 2 4H37ZM89 17q-2 0-4 3L55 73l20 36q2 3 4 3H93q3 0 2-3L75 73l32-53q2-3-2-3Z"/></symbol>
<symbol id="youtube" viewBox="0 0 128 128"><path d="M52 78V46L81 61Zm60-47H16V94h96Z"/></symbol>
<symbol id="zip-folder" viewBox="0 0 128 128"><path d="M81 88V52H92a1 1 0 011 21H81M66 52V88M51 88H28L51 52H28m87-16H57L46 25H14v78H115Z"/></symbol>
<symbol id="zoom-in" viewBox="0 0 128 128"><circle cx="54" cy="54" r="38"/><path d="m81 81 32 32M40 54h28M54 40v28"/></symbol>
<symbol id="zoom-out" viewBox="0 0 128 128"><circle cx="54" cy="54" r="38"/><path d="m81 81 32 32M40 54h28"/></symbol>
</svg>
