<?xml version="1.0" encoding="UTF-8"?><svg xmlns="http://www.w3.org/2000/svg"><symbol id="404" viewBox="0 0 128 128"><path d="M39 64H14L35 37V88M64 39a3 5 0 000 49 3 5 0 000-49m49 25H88l21-26V88"/></symbol><symbol id="accessibility" viewBox="0 0 128 128"><path d="M94 89q11-4 13 1-8 5-16 7-12-27-15-26-20 5-22 3M48 48q-2 8 2 20 9 10-2 9-5-5-8-20-2-19 0-25a9 9 90 118 2q-1 5 4 9 3 2 4 14 0 8 9 7 8-2 16-1 5 1 13 26M82 96A30 30 0 1134 61M29 35 39 85l34-6 14 26 17-5"/></symbol><symbol id="accessibility2" viewBox="0 0 128 128"><path d="M64 15a1 1 0 010 23 1 1 0 010-23M61 46q-13-1-28-8c-9-4-12 6-4 9l20 8q5 2 5 6 0 10-3 18L39 107c-2 5 9 9 11 4L61 84q3-6 6 0l11 27c2 5 13 1 11-4L77 79q-3-6-3-18 0-4 5-6l20-8c8-3 5-13-4-9q-15 7-28 8Z"/></symbol><symbol id="activity" viewBox="0 0 128 128"><path d="M14 64H32L47 25l31 79L94 64h20"/></symbol><symbol id="add-new" viewBox="0 0 128 128"><path d="M54 94H14V14H94V54h20v60H54V54H94M80 88v17h8V88h17V80H88V63H80V80H63v8Z"/></symbol><symbol id="address-book" viewBox="0 0 128 128"><path d="M33 89a11 4 0 1010 4M33 61a11 4 0 1010 4M33 33a11 4 0 109 3m47 54q0-22-13-22A18 15 90 1063 68Q50 68 50 90ZM33 15h72v98H33Z"/></symbol><symbol id="alert" viewBox="0 0 128 128"><path d="M64 75V30m0 57a5 5 90 010 12 5 5 90 010-12"/><circle cx="64" cy="64" r="50"/></symbol><symbol id="anchor" viewBox="0 0 128 128"><path d="M78 64H50m54 4 6 5M98 73l6-5q1 37-40 45M24 68l-6 5m12 0-6-5q-2 38 40 45V43a1 1 0 010-28 1 1 0 010 28"/></symbol><symbol id="apple" viewBox="0 0 128 128"><path d="M102 90s-2 6-7 12-8 12-15 12c-6 0-9-4-15-4s-11 4-16 4-8-4-13-9C25 91 20 68 26 56S41 41 47 41s12 4 16 4 10-4 17-4 15 3 19 10q-22 20 3 39zM82 14Q81 33 63 36q1-21 19-22z"/></symbol><symbol id="arrow-down-left" viewBox="0 0 128 128"><path d="m104 24-79 79m55 0H25V48"/></symbol><symbol id="arrow-down-right" viewBox="0 0 128 128"><path d="m24 24 79 79m-55 0h55V48"/></symbol><symbol id="arrow-down" viewBox="0 0 128 128"><path d="m64 15v98m39-39-39 39-39-39"/></symbol><symbol id="arrow-down2" viewBox="0 0 128 128"><path d="m24 45 40 41 40-41"/></symbol><symbol id="arrow-left" viewBox="0 0 128 128"><path d="m54 25-39 39 39 39M15 64h98"/></symbol><symbol id="arrow-left2" viewBox="0 0 128 128"><path d="M83 24 42 64l41 40"/></symbol><symbol id="arrow-path" viewBox="0 0 128 128"><path d="M14 30q94-51 16 60-24 47 84 2L97 84m9 25 8-17"/></symbol><symbol id="arrow-right" viewBox="0 0 128 128"><path d="M15 64h98M74 25l39 39-39 39"/></symbol><symbol id="arrow-right2" viewBox="0 0 128 128"><path d="m45 24 41 40-41 40"/></symbol><symbol id="arrow-sync" viewBox="0 0 128 128"><path d="M45 35H29V19m0 16c39-38 97 4 74 47M82 91h16v16m0-16C67 132 0 97 24 44"/></symbol><symbol id="arrow-undo-restore" viewBox="0 0 128 128"><path d="M20 65a44 44 0 108-27m0-17V38H44"/></symbol><symbol id="arrow-up-left" viewBox="0 0 128 128"><path d="m25 80V25h55m-55 0 79 79"/></symbol><symbol id="arrow-up-right" viewBox="0 0 128 128"><path d="m103 80V25H48m55 0-79 79"/></symbol><symbol id="arrow-up" viewBox="0 0 128 128"><path d="m64 113V15M25 54l39-39 39 39"/></symbol><symbol id="arrow-up2" viewBox="0 0 128 128"><path d="m24 83 40-41 40 41"/></symbol><symbol id="arrow-update-redo" viewBox="0 0 128 128"><path d="M37 45V29H20m17 0a44 44 90 1027-9"/></symbol><symbol id="asterisk" viewBox="0 0 128 128"><path d="M64 20V64m0 0 42-14M64 64l26 36m-26-36-26 36M64 64 22 50"/></symbol><symbol id="audio" viewBox="0 0 128 128"><path d="M63 18q0-5-5-1L33 42H18q-4 0-4 4V80q0 4 4 4H33l26 27q4 4 4-1Zm30 5-5 5q36 36 0 72l5 5q42-41 0-82ZM79 39l-5 5q19 20 0 40l5 5q23-25 0-50Z"/></symbol><symbol id="back-arrow" viewBox="0 0 128 128"><path d="m55 49V26L15 64l40 37V76m0-27q56 0 58 53-25-39-58-26"/></symbol><symbol id="ban-circle" viewBox="0 0 128 128"><path d="M28 100l72-72A1 1 0 0128 100a1 1 0 0172-72"/></symbol><symbol id="bank-court" viewBox="0 0 128 128"><path d="M111 32q3 1 3 8H14q0-7 3-8L64 15Zm-1 69q4 0 4 11H14q0-11 4-11ZM29 48H39V93H29Zm60 0H99V93H89ZM59 48H69V93H59Z"/></symbol><symbol id="bank-court2" viewBox="0 0 128 128"><path d="M108 45q8 6 0 6H20q-8 0 0-6L60 19q4-2 8 0Zm2 56q4 0 4 11H14q0-11 4-11Z"/><path d="M55 58V51H73v7Zm15 0V94H58V58ZM55 94H73v7H55Z" id="id1"/><use href="#id1" x="33"/><use href="#id1" x="-33"/></symbol><symbol id="basket" viewBox="0 0 128 128"><path d="M45 17Q22 24 17 54l9 57h74l11-57q-7-30-28-37M17 54h94M84 66v35M44 66v35M64 66v35"/></symbol><symbol id="battery-power" viewBox="0 0 128 128"><path d="M33 93q-8 0-8-10V42q0-9 8-9h72q7 0 7 7V85q0 8-7 8ZM62 59 77 39 74 57l6 6L62 87l7-21-7-7M25 76H17q-4-14 0-27h8Z"/></symbol><symbol id="battery" viewBox="0 0 128 128"><path d="M35 37q0-7 10-7H86q9 0 9 8v72q0 7-7 7H42q-7 0-7-6Zm17-7V22q13-4 26 0v8ZH45 86ZH86Z"/></symbol><symbol id="bell-notification" viewBox="0 0 128 128"><path d="M54 101a11 9 90 0020 0m-59 0C30 83 26 65 31 40a33 34 90 0166 0c5 25 1 43 16 61Z"/></symbol><symbol id="bell-notifications-off" viewBox="0 0 128 128"><path d="M54 92a11 9 90 0020 0M26 92c18-28-2-51 18-64a33 34 90 0140 0c20 14 0 36 18 64Zm82-72-88 88"/></symbol><symbol id="bell-notifications-on" viewBox="0 0 128 128"><path d="M54 92a11 9 90 0020 0M26 92c18-28-2-51 18-64a33 34 90 0140 0c20 14 0 36 18 64Z"/></symbol><symbol id="blind" viewBox="0 0 128 128"><circle cx="64" cy="64" r="20"/><path d="M14 64q50 57 100 0Q64 4 14 64Zm2 48 96-96"/></symbol><symbol id="bluesky" viewBox="0 0 128 128"><path d="M64 85q12 41 36 13 11-18-18-25 25 3 29-12 4-39 0-40c-11-4-28 9-47 40C45 30 28 17 17 21q-4 1 0 40 4 15 29 12-29 7-18 25 24 28 36-13"/></symbol><symbol id="bluetooth" viewBox="0 0 128 128"><path d="M40 39 88 89 64 114V14L88 38 40 88"/></symbol><symbol id="book-open" viewBox="0 0 128 128"><path d="M14 103q20 0 50 11V26q9-10 50-12v89q-21-1-50 11V26Q55 16 14 14Z"/></symbol><symbol id="book" viewBox="0 0 128 128"><path d="M51 104V45M26 24 87 14q0 9 13 14M38 38v76m0-76q-9-4-12-14v77q3 10 12 13l62-10V28ZM63 58l27-4m0 20-27 4"/></symbol><symbol id="bookmark" viewBox="0 0 128 128"><path d="M30 114 64 99l34 15V14H30V114Z"/></symbol><symbol id="box-archive" viewBox="0 0 128 128"><path d="M54 64q-3 4 0 8H74q3-4 0-8H54zM16 46h96V30q0-5-3-5H19q-3 0-3 5Zm8 59h80V46H24Z"/></symbol><symbol id="box-open" viewBox="0 0 128 128"><path d="M64 40l50-10V92L64 110Zv70L14 89V29ZM14 29 64 40l50-10L68 18ZM81 77V57l19-5V71ZM68 18V39"/></symbol><symbol id="box-plain" viewBox="0 0 128 128"><path d="M64 40l50-10V92L64 110Zv70L14 89V29ZM14 29 64 40l50-10L68 18Z"/></symbol><symbol id="box-sealed" viewBox="0 0 128 128"><path d="M64 40l50-10V92L64 110Zv70L14 89V29ZM14 29 64 40l50-10L68 18ZM81 77V57l19-5V71Zm6-54L37 34"/></symbol><symbol id="brain" viewBox="0 0 128 128"><path d="M105 81q-11 2-16-4M76 61q9 4-1 13m-29 5q1-8 9-12 6-3 7-10m-27 5q-5 1-7 9m14-27q-1 7-12 9m20-1q-14-6-4-21m25 4q-7 7-17 2m18 12q-7-4 4-25m27 16q-12 11-20 3m10 3q-7 5-5 9m9 9q9 2 12-6m0 0q4-13-6-18-9-16-27-16-27-8-39 6-19 3-18 22-8 14 9 19 2 9 18 8 7 10 18 8l10 17h8l-2-11q22 3 25-12 8-8 4-23"/></symbol><symbol id="briefcase" viewBox="0 0 128 128"><path d="M84 38h28v68H16V38H44V28q0-5 5-5H79q5 0 5 5ZM52 38V30H76v8ZM16 65q0 6 6 6H58v9H72V71H58h48q6 0 6-6"/></symbol><symbol id="bug" viewBox="0 0 128 128"><path d="M64 46c-50 0-39 67 0 67Zc50 0 39 67 0 67M48 49C34 18 94 18 80 49M56 27 50 15m28 0-6 12M33 63H25L14 46M95 63h8l11-17M31 83H23L15 93m28 12H34l-9 8m60-8h9l9 8M97 84h8l8 9"/></symbol><symbol id="buildings-city" viewBox="0 0 128 128"><path d="M62 114V41H14v73M49 56v4M27 56v4M49 76v4M27 97v4m7 13V103h8v11ZM49 97v4M27 76v4Zm8-35V14l42 8v92m0-86h37v86H14M69 33v74M87 40h2m13 0h2M87 52h2m13 0h2M87 64h2m13 0h2M87 76h2m13 0h2M87 88h2m13 0h2M87 100h2m13 0h2"/></symbol><symbol id="buildings" viewBox="0 0 128 128"><path d="M81 114V14H14V114H38V94H58v20h56V34H81M64 31v4M97 51v4m0 16v4m0 17v4M48 31v4M31 31v4M64 51v4M48 51v4M31 51v4M64 71v4M48 71v4M31 71v4"/></symbol><symbol id="bulding-nature" viewBox="0 0 128 128"><path d="M100 81c21-3 14 33 1 22m4 2v9M31 80V76m17 4V76m16 4V76M31 60V56m17 4V56m16 4V56M31 40V36m17 4V36M91 94H88l5-8H89l7-11 7 11h-3l4 8h-3l4 9H87Zm4 9v11M64 40V36m17 78H58V94H38v20H14V14H81V114"/></symbol><symbol id="bulding" viewBox="0 0 128 128"><path d="M97 114V14H30V114H54V94H74v20H97M80 36v4M64 36v4ZM47 36v4M80 56v4M64 56v4M47 56v4M80 76v4M64 76v4M47 76v4"/></symbol><symbol id="calculator" viewBox="0 0 128 128"><path d="M28 16h72v96H28Zm8 10H92V40H36Z"/><path d="M36 50h8v8H36Zm24 0v8H52V50Zm8 0v8h8V50Zm16 0h8v8H84Z" id="id2"/><use href="#id2" y="15"/><use href="#id2" y="30"/><use href="#id2" y="45"/></symbol><symbol id="calendar-1st" viewBox="0 0 128 128"><path d="M51 25H77m7 0V35H77V15h7V25h29v88H15V25H44V15h7V35H44V25M15 47h98M50 65l14-9v47m14 0H50"/></symbol><symbol id="calendar-31st" viewBox="0 0 128 128"><path d="M51 25H77m7 0V35H77V15h7V25h29v88H15V25H44V15h7V35H44V25M15 47h98M72 65l14-9v47m12 0H71M28 57H53L38 75c28-2 24 35-8 27"/></symbol><symbol id="calendar-date" viewBox="0 0 128 128"><path d="M51 25H77m7 0V35H77V15h7V25h29v88H15V25H44V15h7V35H44V25M15 47h98M54 54v59M74 54v59m20 0V54M34 113V54M15 69h98m0 15H15m0 15h98m0-45H15M77 87l14 9m0-9-14 9"/></symbol><symbol id="calendar-plain" viewBox="0 0 128 128"><path d="M51 25H77m7 0V35H77V15h7V25h29v88H15V25H44V15h7V35H44V25M15 47h98"/></symbol><symbol id="calendar" viewBox="0 0 128 128"><path d="M51 25H77m7 0V35H77V15h7V25h29v88H15V25H44V15h7V35H44V25M15 47h98M54 54v59M74 54v59m20 0V54M34 113V54M15 69h98m0 15H15m0 15h98m0-45H15"/></symbol><symbol id="camera" viewBox="0 0 128 128"><path d="M114 39q0-15-10-5L84 54V39q0-10-10-10H24Q14 29 14 39V88q0 11 10 11H74q10 0 10-10V74l20 20q10 10 10-5V39"/></symbol><symbol id="camera2" viewBox="0 0 128 128"><path d="M22 38h84V92H22ZM64 83a1 1 0 000-37 1 1 0 000 37ZM48 28H80q2 0 2 2v8H46V30q0-2 2-2ZM64 55a1 1 0 000 19 1 1 0 000-19Z"/></symbol><symbol id="car" viewBox="0 0 128 128"><path d="M43 25q-6 0-10 9L24 53q-6-2-7 1l-2 6q-1 3 4 5-1 1-1 3V91q1 2 3 2v6q0 4 4 4H36q4 0 4-4V93H90v6q0 4 4 4h10q4 0 4-4V93q2 0 2-2V68q0-2-1-3s0 0 0 0q5-2 4-5l-2-6q-1-3-7-1L95 34q-4-9-8-9ZM35 56q-4 0-3-3c12-21 3-21 32-21s20 0 32 21q1 3-3 3Zm7 15q3 1 3 5T29 79q-3 0-3-3V69q0-3 3-2Zm58-4q3-1 3 2v7q0 3-3 3-16 1-16-3t3-5l13-4Z"/></symbol><symbol id="cart-big" viewBox="0 0 128 128"><path d="M53 50V69m20 0V50m20 0V69m13 20H95a1 1 90 010 16 1 1 90 010-16H51a1 1 90 010 16 1 1 90 010-16H38a1 1 90 010-10M34 39h78l-4 40H38L34 39ZQ28 26 16 25"/></symbol><symbol id="cart-small" viewBox="0 0 128 128"><path d="M16 27q13 0 15 14m0 0 8 40h66l7-40H31Zm8 40a1 1 90 000 10H50a6 6 90 101 0H94a6 6 90 101 0h11"/></symbol><symbol id="cat-blep" viewBox="0 0 128 128"><path d="M73 96q-9 18-18 0M22 39a48 49 90 1084 0q6-9 7-24-23 0-29 12-20-5-40 0-6-12-29-12 1 15 7 24M42 65a1 1 0 010-18 1 1 0 010 18m24 7q10 4 3 7-5 8-10 0-7-3 3-7ZM52 96q7 0 12-6 5 6 12 6M86 65a1 1 0 010-18 1 1 0 010 18m1 16 17-6M99 87H87m-1 6 6 2M36 95l6-2m-1-6H29M24 75l17 6"/></symbol><symbol id="cat" viewBox="0 0 128 128"><path d="M41 81 24 75m5 12H41m1 6-6 2m56 0-6-2m1-6H99m5-12-17 6M98 54c3-10-1-7-12-7-26 3 1 39 12 7M77 96q-7 0-12-6-5 6-12 6m6-24q-7 5 1 7 5 8 10 0 8-2 1-7ZM30 54c11 32 42-4 12-7-11 0-15-3-12 7M22 39q2-9-7-24 23 0 29 12 20-5 40 0 6-12 29-12-9 15-7 24A48 49 90 1122 39M42 53q-4 4 0 8 4-4 0-8m44 0q-4 4 0 8 4-4 0-8"/></symbol><symbol id="certificate" viewBox="0 0 128 128"><circle cx="86" cy="58" r="15"/><path d="M14 30H114V99H14ZM31 49H63m0 17H31m0 17H55M74 67V89l12-5 12 5V67M78 60l5 5 12-9"/></symbol><symbol id="certified-copy" viewBox="0 0 128 128"><circle cx="69" cy="67" r="15"/><path d="M57 76V98l12-5 12 5V76M61 67l5 5 12-9m24-21L82 24m0 0V42h20v71H37V24Zm1-9H27v92"/></symbol><symbol id="certified-document" viewBox="0 0 128 128"><path d="M101 33 83 15m0 0V33h18v80H26V15ZM52 71V93l12-5 12 5V71M56 62l5 5 12-9"/><circle cx="64" cy="62" r="15"/></symbol><symbol id="certified-security" viewBox="0 0 128 128"><path d="M52 67V89l12-5 12 5V67M56 60l5 5 12-9M64 14q11 17 42 12 2 70-42 87Q20 96 22 26q30 5 42-12Z"/><circle cx="64" cy="58" r="15"/></symbol><symbol id="certified" viewBox="0 0 128 128"><path d="M49 90H36ZH36m0-17H61M74 93v13l8-4 8 4V93M77 82l4 4 6-8M36 61H92m0-12H36M55 31H36m65 2L83 15m0 0V33h18v80H26V15Z"/><circle cx="82" cy="81" r="13"/></symbol><symbol id="certified2" viewBox="0 0 128 128"><path d="M40 67v45L64 99l24 13V67M48 49 59 60 80 37"/><circle cx="64" cy="48" r="30"/></symbol><symbol id="chart-bar" viewBox="0 0 128 128"><path d="M13 13v102h102m-94-8V71h24v36Zm32 0V31h24v76Zm32 0V55h24v52Z"/></symbol><symbol id="chart-line" viewBox="0 0 128 128"><path d="M13 13V115H115M21 84 38 63l17 6L72 48l17 9 17-19"/></symbol><symbol id="chart-performance" viewBox="0 0 128 128"><path d="M13 13V115H115M21 84 38 63l17 6L72 48l17 9 17-19H96m10 0 2 9"/></symbol><symbol id="chart-pie" viewBox="0 0 128 128"><path d="M67 13a55 55 90 0148 47H67ZM60 67V20a47 47 90 1048 47Z"/></symbol><symbol id="checklist" viewBox="0 0 128 128"><path d="M113 36H39m74 27H39m74 27H39M14 36l5 6L30 28M14 63l5 6L30 55M14 90l5 6L30 82"/></symbol><symbol id="circle-heart" viewBox="0 0 128 128"><circle cx="64" cy="64" r="50"/><path d="M64 87c37-21 30-58 0-37-29-20-36 18 0 37"/></symbol><symbol id="circle-tick" viewBox="0 0 128 128"><path d="M28 68l22 22 42-46"/><circle cx="64" cy="64" r="50"/></symbol><symbol id="circle" viewBox="0 0 128 128"><circle cx="64" cy="64" r="50"/></symbol><symbol id="clipboard" viewBox="0 0 128 128"><path d="M52 28H31v86H99V28H76v4H52V28q0-6 8-6a5 5 0 118 0q8 0 8 6M44 52H86M44 72H86M44 92H86"/></symbol><symbol id="clipboard2" viewBox="0 0 128 128"><path d="M52 28H31v86H99V28H76v4H52V28q0-6 8-6a5 5 0 118 0q8 0 8 6"/></symbol><symbol id="clock" viewBox="0 0 128 128"><path d="M64 15a1 1 0 000 98 1 1 0 000-98m0 7v6m20 0h0m17 16h0m-73 0h0m17-16h0m19 79v-7m20 0h0m17-16h0m6-20h-6m-73 0h-6m6 20h0m16 16h0m20-64v28l19 12"/></symbol><symbol id="clock2" viewBox="0 0 128 128"><path d="M83 76 64 64V36M22 64h6m73 0h6M64 100v7m0-79V22m0-7a1 1 0 010 98 1 1 0 010-98"/></symbol><symbol id="close" viewBox="0 0 128 128"><path d="M86 86 41 41m1 45L87 41"/></symbol><symbol id="cloud-co2-carbon-reduction" viewBox="0 0 128 128"><path d="M95 71H88l5-6c5-5 0-10-5-5M37 79a16 16 90 112-46 27 27 90 0151 4 1 1 0 014 42ZM50 41c-19-5-21 34 2 27M70 41c-12 0-14 28 0 28s12-28 0-28M64 88v23m-6-5 6 5 6-5M34 88v23m-6-5 6 5 6-5M92 88v23m-6-5 6 5 6-5"/></symbol><symbol id="cloud-co2-carbon" viewBox="0 0 128 128"><path d="M95 86H88l5-6c5-5 0-10-5-5M37 94a16 16 90 112-46 27 27 90 0151 4 1 1 0 014 42ZM50 56c-19-5-21 34 2 27M70 56c-12 0-14 28 0 28s12-28 0-28"/></symbol><symbol id="cloud-download" viewBox="0 0 128 128"><path d="M52 80H37a16 16 90 112-46 27 27 90 0151 4 1 1 0 014 42H76M64 53v58M84 91 64 111 46 91"/></symbol><symbol id="cloud-sync" viewBox="0 0 128 128"><path d="M52 80H37a16 16 90 112-46 27 27 90 0151 4 1 1 0 014 42H76M64 48v63M84 91 64 111 46 91M84 68 64 48 46 68"/></symbol><symbol id="cloud-upload" viewBox="0 0 128 128"><path d="M52 80H37a16 16 90 112-46 27 27 90 0151 4 1 1 0 014 42H76M64 48v58M84 68 64 48 46 68"/></symbol><symbol id="cloud" viewBox="0 0 128 128"><path d="M37 94a16 16 90 112-46 27 27 90 0151 4 1 1 0 014 42Z"/></symbol><symbol id="code" viewBox="0 0 128 128"><path d="M82 88l31-24L82 40M46 88 15 64 46 40"/></symbol><symbol id="code2" viewBox="0 0 128 128"><path d="M52 115 76 14m6 74 31-24L82 40M46 88 15 64 46 40"/></symbol><symbol id="coffee-cup" viewBox="0 0 128 128"><path d="M83 48H27V89q0 24 18 24H65q18 0 18-25 38-33 0-35Zm0 14q20 0 0 14ZM39 38c4-7-5-13 0-23m16 0c-5 8 4 16 0 23m16 0c4-7-6-13 0-23"/></symbol><symbol id="coffee-cup2" viewBox="0 0 128 128"><path d="M85 55H29V88q0 19 23 19h7q26 0 26-19 30-24 0-28Zm0 12q15 1 0 12ZM41 45c4-7-5-13 0-23m16 0c-5 8 4 16 0 23m16 0c4-7-6-13 0-23"/></symbol><symbol id="cog" viewBox="0 0 128 128"><path d="M59 18h9l5 15a32 32 90 015 2l13-9 6 5-6 15a32 32 90 012 5l17 2 1 8-14 7a32 32 90 01-1 6l11 10-5 8-15-4a32 32 90 01-4 4l1 16-8 2-9-12a32 32 90 01-5 0l-9 12-7-2 1-16a32 32 90 01-5-4L27 92l-5-8L33 74a32 32 90 01-1-6L18 61l2-8 16-2a32 32 90 013-5L32 31l7-5 12 9a32 32 90 016-2Zm5 32a14 14 90 000 29 14 14 90 000-29"/></symbol><symbol id="color-palette" viewBox="0 0 128 128"><path d="M62 87c7-1 12 11 1 12s-15-9-1-12ZM92 47c14 0 14 19 0 19S77 47 92 47ZM61 29c8 1 9 11-2 11s-9-13 2-11ZM37 45c9 1 8 16-3 13s-7-15 3-13Zm7 25c6-1 15 9 2 13S29 71 44 70Zm30 43Q9 112 15 56c3-37 98-76 98 14q0 27-18 11Q65 57 82 93q12 19-8 20Z"/></symbol><symbol id="compass" viewBox="0 0 128 128"><path d="M68 68a1 1 0 00-8-8 1 1 0 008 8m5 5L91 37 55 55 37 91ZM22 64H15m98 0h-7M64 113v-7m0-91v7m0-7a1 1 0 010 98 1 1 0 010-98"/></symbol><symbol id="computer-pc" viewBox="0 0 128 128"><path d="M101 38h13V97H89V81m12 0H14V30h87ZM63 81Q62 91 79 94v3H39V94q16-3 15-13Zm39 8v1"/></symbol><symbol id="conversation" viewBox="0 0 128 128"><path d="M37 52H69q5 0 5-5V24q0-6-6-6H21q-5 0-5 5V47q0 5 5 5h7v8ZM24 29H49m7 0H66M24 41H42m7 0H66m24 59H58q-5 0-5-5V72q0-6 6-6h48q5 0 5 5V95q0 5-5 5h-7v8Zm13-23H78m-7 0H61m42 12H91m-7 0H61"/></symbol><symbol id="copy" viewBox="0 0 128 128"><path d="M102 42 82 24m0 0V42h20v71H37V24Zm1-9H27v92"/></symbol><symbol id="credit-card" viewBox="0 0 128 128"><path d="M20 33h88q5 0 5 5V92q0 6-5 6H20q-5 0-5-5V38q0-5 5-5Zm7 47H69M15 51h98M90 80h10"/></symbol><symbol id="deaf" viewBox="0 0 128 128"><path d="M34 92a1 1 90 0037 5c1-29 26-28 26-50A1 1 90 0031 47m48-6Q61 17 45 51q33-8 23 13Q55 94 41 74M16 112l96-96"/></symbol><symbol id="diamond" viewBox="0 0 128 128"><path d="M31 22 48 48 64 22 80 48 97 22l15 26H16L31 22H97M64 106l48-58H80L64 106 48 48H16l48 58"/></symbol><symbol id="discord" viewBox="0 0 128 128"><path d="M44 92l-5 11L18 92q-4-2-4-8 1-30 13-49 2-3 6-5l16-4 4 7q11-3 22 0l4-7 16 5q4 1 6 5 12 19 13 49 0 6-4 8L89 104 84 93M38 88q26 14 54 0M47 77c-11 0-11-20 0-20s11 20 0 20Zm34 0c-11 0-11-20 0-20s11 20 0 20Z"/></symbol><symbol id="divided-by" viewBox="0 0 128 128"><path d="M25 73V55h78V73ZM64 85a1 1 90 010 22 1 1 90 010-22m0-42a1 1 0 000-22 1 1 0 000 22"/></symbol><symbol id="doctor-stethoscope" viewBox="0 0 128 128"><path d="M29 21c10 14 9-15 0 0Q1 21 31 69q16 31 32 0 30-48 2-48c-9-15-9 14 0 0M47 84v16c0 16 33 17 33 0V66c0-16 23-16 23-1a1 1 90 000 20 1 1 90 000-20m0 13c-4 0-4-6 0-6s4 6 0 6"/></symbol><symbol id="document-add" viewBox="0 0 128 128"><path d="M77 68H51M64 81V55M26 15v98h75V33H83V15Zm57 0 18 18Z"/></symbol><symbol id="document-minus" viewBox="0 0 128 128"><path d="M77 68H51M26 15v98h75V33H83V15Zm57 0 18 18Z"/></symbol><symbol id="document-paper" viewBox="0 0 128 128"><path d="M26 15v98h75V33H83V15Zm57 0 18 18Z"/></symbol><symbol id="document-remove" viewBox="0 0 128 128"><path d="M77 57 52 81m24 0L52 57M26 15v98h75V33H83V15Zm57 0 18 18Z"/></symbol><symbol id="document-star" viewBox="0 0 128 128"><path d="M64 50l6 14h14L74 75l4 14-14-8-14 8 5-14-11-11h14zM26 15v98h75V33H83V15Zm57 0 18 18Z"/></symbol><symbol id="document-tick" viewBox="0 0 128 128"><path d="M79 57 60 83 49 74M26 15v98h75V33H83V15Zm57 0 18 18Z"/></symbol><symbol id="download" viewBox="0 0 128 128"><path d="m23 73v36h82V73M64 21v71m28-28-28 28-27-28"/></symbol><symbol id="drink-ice" viewBox="0 0 128 128"><path d="M73 62H61M49 62H38m9-2 9 8 7-9-8-8Zm28-6 10 2-2 10-10-2Zm15 8H84Zm4-28H34l10 78H84ZM54 105 81 14"/></symbol><symbol id="drink" viewBox="0 0 128 128"><path d="M90 62H38Zm4-28H34l10 78h40Zm-40 71 27-91"/></symbol><symbol id="drop-water" viewBox="0 0 128 128"><path d="M64 14C41 44 16 86 43 106q21 15 42 0c27-20 2-62-21-92Z"/></symbol><symbol id="ear" viewBox="0 0 128 128"><path d="M34 92a1 1 90 0037 5c1-29 26-28 26-50A1 1 90 0031 47m48-6Q61 17 45 51q33-8 23 13Q55 94 41 74"/></symbol><symbol id="earth" viewBox="0 0 128 128"><circle cx="64" cy="64" r="50"/><path d="M49 22s-5-3 0-5Zm5-7q2 8-3 11-5 4 5 4 2 5 7 5 7 0 7-5 2-1 5 0s0 4 1 4q4 4 4 7 1 4-7 4c-6 0-7-7-14-9q-6 1-9 3-11 0-10 8c-2 8-3 7 1 11s9 1 15 16 2 8 5 20c1 3 4 3 5 5q2 1 3 0c2-1 3-2 5-5q6-7 6-10V75c0-3 12-10 10-12q-8-10-2-5c6 7 7-4 7-8q4-1 7 0 4 13 6 3c2-3 2-3 4-1M15 68c14 2 3 9 4 18"/></symbol><symbol id="eco-battery" viewBox="0 0 128 128"><path d="M35 37Q35 30 45 30H86Q95 30 95 38V110Q95 117 88 117H42Q35 117 35 111zM52 30 52 22Q65 18 78 22V30zM54 43H45V57H54M45 50H53M67 43H65A1 1 0 0066 57H68M79 43A1 1 0 0079 57 1 1 0 0079 43ZM42 83H87V65H42ZM87 90V109H42V90Z"/></symbol><symbol id="eco-label" viewBox="0 0 128 128"><path d="M81 99q33 0 33-33V41q0-11-10-11H64Q13 30 13 64V88q0 11 9 11Zm9-48c16 0 15 28 0 28S75 51 90 51M70 79H66c-19 0-19-28-1-28h4M39 63H25M43 79H25V51H43"/></symbol><symbol id="eco-pc" viewBox="0 0 128 128"><path d="M101 38h13V97H89V81m12 0H14V30h87ZM62 81v9H80v7H37V90H55V81ZM40 41H23V70H40M23 55H37M63 41H59c-15 0-16 29 1 29h4M82 41c-14 0-14 29 0 29s14-29 0-29Zm19 48h2"/></symbol><symbol id="edit" viewBox="0 0 128 128"><path d="M103 105H22M41 65 59 83m0-11L95 36m9 2A40 40 0 0085 21L41 65 34 89l25-6 45-45"/></symbol><symbol id="ellipses" viewBox="0 0 128 128"><path d="M55 100a1 1 0 0018 0 1 1 0 00-18 0" id="id3"/><use href="#id3" x="36"/><use href="#id3" x="-36"/></symbol><symbol id="email-at" viewBox="0 0 128 128"><path d="M85 64q0 21-21 21T43 64 64 43 85 64v10c3 17 28 12 28 0V64q0-49-49-49T15 64t49 49q21-1 28-9"/></symbol><symbol id="email" viewBox="0 0 128 128"><path d="M64 74l48-45V99H16V29h96ZL16 29"/></symbol><symbol id="equals" viewBox="0 0 128 128"><path d="M30 47H96m0 34H30 96"/></symbol><symbol id="exclamation-mark" viewBox="0 0 128 128"><path d="M64 78V15m0 80a7 7 90 010 17 7 7 90 010-17"/></symbol><symbol id="eye" viewBox="0 0 128 128"><circle cx="64" cy="64" r="20"/><path d="M14 64q50 57 100 0Q64 4 14 64Z"/></symbol><symbol id="facebook" viewBox="0 0 128 128"><path d="M69 70v43H51V70H37V52H51V37s0-22 22-22H87V34H77c-4 0-7 4-7 7V52H87L84 70Z"/></symbol><symbol id="fast-forward" viewBox="0 0 128 128"><path d="M28 28v72L60 71v29l40-36L60 28V57Z"/></symbol><symbol id="feather" viewBox="0 0 128 128"><path d="M30 93 18 113Q53 48 97 23m12-9q-4 14-9 20-25 6-4 6-5 12-19 24-37-1-3 6L67 80q-37 0-2 4l-4 5q-10 9-32 5-5-21 2-32 7 20 4-4L50 42q2 24 5-4 13-13 54-24Z"/></symbol><symbol id="flag-pointy" viewBox="0 0 128 128"><path d="M27 71h74L89 43l12-28H27v99"/></symbol><symbol id="flag-wavy" viewBox="0 0 128 128"><path d="M27 69c33 8 49-6 74 0V17c-22-9-41 6-74-1v96"/></symbol><symbol id="flag" viewBox="0 0 128 128"><path d="M27 71h74V15H27v99"/></symbol><symbol id="flame" viewBox="0 0 128 128"><path d="M55 15c8 7 20 65 28 35q27 53-9 63c4-32-7-27-12-43q-27 24-7 43C3 90 66 46 55 15Z"/></symbol><symbol id="flower" viewBox="0 0 128 128"><path d="M64 39q30-53 19 7 55-9 7 18 48 36-7 18 11 60-18 7-30 53-18-7-57 18-8-18-49-28 7-18-12-60 18-7Za1 1 90 001 50A1 1 90 0064 39"/></symbol><symbol id="folder-add" viewBox="0 0 128 128"><path d="M77 68H51M64 81V55m51-19H57L46 25H14v78H115Z"/></symbol><symbol id="folder-minus" viewBox="0 0 128 128"><path d="M77 68H51m64-32H57L46 25H14v78H115Z"/></symbol><symbol id="folder-remove" viewBox="0 0 128 128"><path d="M77 57 52 81m24 0L52 57m63-21H57L46 25H14v78H115Z"/></symbol><symbol id="folder-star" viewBox="0 0 128 128"><path d="m115 36H57L46 25H14v78h101zM64 50l6 14h14L74 75l4 14-14-8-14 8 5-14-11-11h14z"/></symbol><symbol id="folder-tick" viewBox="0 0 128 128"><path d="M79 57 60 83 49 74m66-38H57L46 25H14v78H115Z"/></symbol><symbol id="folder" viewBox="0 0 128 128"><path d="M115 103H14V25H46L57 36h58Z"/></symbol><symbol id="forbidden" viewBox="0 0 128 128"><circle cx="64" cy="64" r="50"/><path d="m30 30 68 68"/></symbol><symbol id="forward-arrow" viewBox="0 0 128 128"><path d="m73 49V26l40 38-40 37V76m0-27q-56 0-58 53 25-39 58-26"/></symbol><symbol id="funnel" viewBox="0 0 128 128"><path d="M14 14 49 61q2 3 2 8v45l26-13V69q0-5 2-8l35-47Z"/></symbol><symbol id="gift-present" viewBox="0 0 128 128"><path d="M113 51ZH20v62h88V51h5H15V32h98ZM64 51h4V32c45-5 20-37 0 0q-4-11-8 0c-18-37-45-5 0 0V51h4v62"/></symbol><symbol id="github" viewBox="0 0 128 128"><path d="M75 114V96q0-5-5-7 29-7 19-38 2-10 0-14-5 0-14 5-12-5-23 0-10-5-14-5-2 5 0 14-10 31 19 38-5 2-5 7-10 2-14-5-3-5-10-5-5 1 3 6c5 3 3 13 22 12v10m0 0a50 50 90 1 1 22 0"/></symbol><symbol id="glasses" viewBox="0 0 128 128"><path d="M44 66Q15 63 19 79t27 9c11-4 12-20-2-22m40 0q29-3 25 13T82 88c-11-4-12-20 2-22M54 74q10-5 20 0M44 41 25 67M84 41l19 26"/></symbol><symbol id="globe" viewBox="0 0 128 128"><path d="M114 64A50 50 0 1014 64a50 50 0 10100 0H14m8-27h84m0 54H22m36 22Q14 64 58 15m12 0q44 49 0 98"/></symbol><symbol id="globe2" viewBox="0 0 128 128"><path d="M64 14a1 1 0 010 99 1 1 0 010-99C54 14 43 36 44 64s9 49 20 49m0-99c11 0 20 22 20 50s-9 49-20 49M15 64h98"/></symbol><symbol id="greater-than" viewBox="0 0 128 128"><path d="M32 32 L96 64 L32 96"/></symbol><symbol id="hamburger" viewBox="0 0 128 128"><path d="M16 64h96m0 27H16m0-54h96"/></symbol><symbol id="hamburger2" viewBox="0 0 128 128"><path d="M22 64h84m0 27H22m0-54h84"/></symbol><symbol id="hand-open-coins" viewBox="0 0 128 128"><path d="m14 85 20-16q6-4 35-4c3 0 7 7 0 10q-23 4-20 7 2 4 40-3c8-3 10-8 15-14 4-6 15-11 7 5q-4 11-14 20-7 4-21 6-36 4-53 18"/><circle cx="65" cy="45" r="7" id="id4"/><use href="#id4" x="16" y="12"/><use href="#id4" x="19" y="-8"/></symbol><symbol id="hand-open-heart" viewBox="0 0 128 128"><path d="M14 85 34 69q6-4 35-4c3 0 7 7 0 10q-23 4-20 7 2 4 40-3c8-3 10-8 15-14 4-6 15-11 7 5q-4 11-14 20-7 4-21 6-36 4-53 18M85 34A8 8 90 1071 45L85 59 99 45A8 8 90 0085 34"/></symbol><symbol id="hand-open-sprout" viewBox="0 0 128 128"><path d="M84 69V48q0-4 4-9M55 22v7q1 18 18 18h7V40Q79 23 62 22H55M87 39h7q18-1 18-18V14h-6Q89 15 87 32v7L102 23M66 32 80 47q3 1 4 6M14 85 34 69q6-4 35-4c3 0 7 7 0 10q-23 4-20 7 2 4 40-3c8-3 10-8 15-14 4-6 15-11 7 5q-4 11-14 20-7 4-21 6-36 4-53 18"/></symbol><symbol id="hand-open" viewBox="0 0 128 128"><path d="M14 85 34 69q6-4 35-4c3 0 7 7 0 10q-23 4-20 7 2 4 40-3c8-3 10-8 15-14 4-6 15-11 7 5q-4 11-14 20-7 4-21 6-36 4-53 18"/></symbol><symbol id="head-idea" viewBox="0 0 128 128"><path d="M73 63q-2 2-4 0m-1 0h6m0-2H68m0-2V57q0-3-2-4a10 10 90 1110 0q-2 1-2 4v2ZM53 47h3m0-15 2 2m13-9v3m13 4-2 2m7 13H86m9 42q5 15 2 16l-26 8q-4 1-8-16-2-4-12-3-15 1-15-24c-13 0-11-4-1-21A33 33 90 1195 66q-6 8-1 20Z"/></symbol><symbol id="head" viewBox="0 0 128 128"><path d="M95 89q5 15 2 16l-26 8q-4 1-8-16-2-4-12-3-15 1-15-24c-13 0-11-4-1-21A33 33 90 1195 66q-6 8-1 20Z"/></symbol><symbol id="headphones-off" viewBox="0 0 128 128"><path d="M84 114c39 1 39-50 0-49Zm29-28V64c1-66-99-66-98 0V86M44 65c-39-1-39 50 0 49ZM15 15l98 98"/></symbol><symbol id="headphones" viewBox="0 0 128 128"><path d="M84 114c39 1 39-50 0-49Zm29-28V64c1-66-99-66-98 0V86M44 65c-39-1-39 50 0 49Z"/></symbol><symbol id="heart" viewBox="0 0 128 128"><path d="M64 106C-18 72 18-5 64 34c46-39 82 38 0 72Z"/></symbol><symbol id="heart2" viewBox="0 0 128 128"><path d="M64 108s38-36 44-47A1 1 0 1064 31 1 1 1 0020 61c6 11 44 47 44 47Z"/></symbol><symbol id="help" viewBox="0 0 128 128"><path d="M64 87a5 5 90 010 12 5 5 90 010-12M49 40a18 18 90 1119 28q-4 0-4 4v8"/><circle cx="64" cy="64" r="50"/></symbol><symbol id="history-undo" viewBox="0 0 128 128"><path d="M20 65a44 44 0 108-27m0-17V38H44M80 74 64 64V40M28 64h3m66 0h3M64 97v3m0-70V27"/></symbol><symbol id="home" viewBox="0 0 128 128"><path d="m18 50 46-33 46 33v61H18zm30 61V65h31v46"/></symbol><symbol id="hourglass-time-left" viewBox="0 0 128 128"><path d="M98 15q3 5 0 10H91q4 22-17 39 21 17 17 39h7q3 5 0 10H30q-3-5 0-10h7Q33 81 54 64 33 47 37 25H30q-3-5 0-10ZM44 40C56 64 64 60 64 68c0-8 8-4 20-28Zm6 63c18-10 10-10 28 0Z"/><path d="M64 64v30z" stroke-dasharray="2,10"/></symbol><symbol id="hourglass-time-out" viewBox="0 0 128 128"><path d="M98 15q3 5 0 10H91q4 22-17 39 21 17 17 39h7q3 5 0 10H30q-3-5 0-10h7Q33 81 54 64 33 47 37 25H30q-3-5 0-10ZM55 56c3 6 9 7 9 12 0-5 6-6 9-12ZM44 103q-2-3-1-7c33-20 9-20 42 0q1 4-1 7Z"/><path d="M64 66v14z" stroke-dasharray="3,12"/></symbol><symbol id="hourglass" viewBox="0 0 128 128"><path d="M98 15q3 5 0 10H91q4 22-17 39 21 17 17 39h7q3 5 0 10H30q-3-5 0-10h7Q33 81 54 64 33 47 37 25H30q-3-5 0-10Z"/></symbol><symbol id="id-card" viewBox="0 0 128 128"><path d="M99 81c0-6-21 4-18-2 1-7-13 9-14 0M64 68h41m0-8H64M24 81H55V41H24V81q0-9 12-9a9 13 0 117 0q12 0 12 9m58 8H15M64 51h41V41H64ZM20 33q-5 0-5 5V93q0 5 5 5h88q5 0 5-6V38q0-5-5-5H20Z"/></symbol><symbol id="id-card2" viewBox="0 0 128 128"><path d="M64 71h41m0 10H64m41-21H64M24 81H55V41H24V81q0-9 12-9a9 13 0 117 0q12 0 12 9m58 9H15M64 50h41V41H64ZM20 33q-5 0-5 5V93q0 5 5 5h88q5 0 5-6V38q0-5-5-5H20Z"/></symbol><symbol id="id-card3" viewBox="0 0 128 128"><path d="M103 70H65M24 81H55V41H24V81q0-9 12-9a9 13 0 117 0q12 0 12 9m58 9H15M65 55h38ZM20 33q-5 0-5 5V93q0 5 5 5h88q5 0 5-6V38q0-5-5-5H20Z"/></symbol><symbol id="image" viewBox="0 0 128 128"><path d="M15 15h98v98H15Zm0 75L38 71 66 86 90 48l23 26M47 57a1 1 0 004-26A1 1 0 0047 57"/></symbol><symbol id="info" viewBox="0 0 128 128"><path d="M55 57h9V96M52 96H76M64 45a5 5-90 010-12 5 5-90 010 12"/><circle cx="64" cy="64" r="50"/></symbol><symbol id="info2" viewBox="0 0 128 128"><path d="M55 57h9V96M52 96H76M64 45a5 5-90 010-12 5 5-90 010 12"/></symbol><symbol id="kebab-menu" viewBox="0 0 128 128"><path d="M54 64a1 1 0 0020 0A1 1 0 0054 64" id="id5"/><use href="#id5" y="32"/><use href="#id5" y="-32"/></symbol><symbol id="key" viewBox="0 0 128 128"><path d="M31 49a13 13 90 004 4 13 13 90 10-4-4Zm83 56-9 9L55 64a27 27 90 119-9L85 76 98 63l8 8L93 84l7 7 6-6 8 8-6 6Z"/></symbol><symbol id="key2" viewBox="0 0 128 128"><path d="M98 69V83H82V69H56a22 22 90 110-10h58V69ZM31 55a10 10 90 1010 1A10 10 90 0031 55Z"/></symbol><symbol id="layout-dashboard" viewBox="0 0 128 128"><path d="M58 18V72H18V18ZM70 49V18h40V49Zm0 12v49h40V61ZM58 84H18v26H58Z"/></symbol><symbol id="layout-grid" viewBox="0 0 128 128"><path d="M42 18V42H18V18ZM86 42V18h24V42Zm0 44v24h24V86ZM42 86H18v24H42ZM52 18H76V42H52ZM18 52H42V75H18Zm34 0V75H76V52Zm34 0V75h24V52ZM52 86H76v24H52Z"/></symbol><symbol id="leaf-shield" viewBox="0 0 128 128"><path d="M64 14q11 17 42 12 2 70-42 87Q20 96 22 26q30 5 42-12ZM45 85c13-9 26-18 32-31M55 78c-5-3-20-19 30-40C99 72 67 84 55 78"/></symbol><symbol id="leaf" viewBox="0 0 128 128"><path d="m19 113c27-18 55-37 66-65M40 99c-11-7-41-40 62-84 30 72-38 97-62 84"/></symbol><symbol id="less-than" viewBox="0 0 128 128"><path d="m96 32-64 32 64 32"/></symbol><symbol id="letter" viewBox="0 0 128 128"><path d="M49 90H36ZH36m0-17H61M36 61H92m0-12H36M55 31H36m65 2L83 15m0 0V33h18v80H26V15Z"/></symbol><symbol id="lightbulb-off" viewBox="0 0 128 128"><path d="M71 99V93q0-6 7-10A27 27 1 1050 83q7 4 7 10v6Zm-14 6H71m0 6H57m4 0q3 4 6 0"/></symbol><symbol id="lightbulb-on" viewBox="0 0 128 128"><path d="M67 111q-3 4-6 0m-4 0H71m0-6H57m0-6V93q0-6-7-10a27 27 1 1128 0q-7 4-7 10v6ZM17 65h7m3-37 6 5M64 14v7m37 7-5 5m15 32h-7"/></symbol><symbol id="lightning" viewBox="0 0 128 128"><path d="M89 15H50L35 69H55L42 113 94 54H68Z"/></symbol><symbol id="link" viewBox="0 0 128 128"><path d="M57 64a20 20 90 0 0 29 6l18-20a20 20 90 0 0-31-26L55 44" id="id6"/><use href="#id6"/><use href="#id6" transform="rotate(180 64 64)"/></symbol><symbol id="linkedin" viewBox="0 0 128 128"><path d="M111 112H90V80q0-14-10-14T70 80v32H51V50H69V60s6-10 20-10c12 0 22 10 22 26Zm-93 0H39V50H18ZM29 42a1 1 0 000-26 1 1 0 000 26Z"/></symbol><symbol id="list" viewBox="0 0 128 128"><path d="M26 30V42H14V30Zm87 6H39M26 57V69H14V57Zm87 6H39M26 84V96H14V84Zm87 6H39"/></symbol><symbol id="location" viewBox="0 0 128 128"><path d="M64 14C42 14 24 32 24 54q0 13 9 23l31 37L95 77q9-10 9-23c0-22-18-40-40-40Zm0 25a1 1 0 000 28 1 1 0 000-28"/></symbol><symbol id="locked" viewBox="0 0 128 128"><path d="M33 58H95v51H33V58H46V37a1 1 90 1136 0V58M60 97h8V86a7 7 1 10-8 0Z"/></symbol><symbol id="login-enter" viewBox="0 0 128 128"><path d="M41 38V24H96v80H42V90M31 64H80L64 48m0 32L80 64"/></symbol><symbol id="logout-exit" viewBox="0 0 128 128"><path d="M48 64H97M81 48 97 64 81 80m5 10v14H32V24H87V38"/></symbol><symbol id="magnet" viewBox="0 0 128 128"><path d="M80 77 93 89 81 101C45 138-10 83 26 48L39 35 51 47l-7 7c-27 24 5 56 30 29Zm17 8 7-7L91 66l-7 7ZM55 43l7-7L50 24l-7 7Zm1-24V14m10 7-4 4m5 5h5M97 62V57m10 5-4 4m5 6h5"/></symbol><symbol id="map" viewBox="0 0 128 128"><path d="m14 106 34-13 32 13 34-13V20l-34 13-32-13-34 13zm34-86v73m32-60v73"/></symbol><symbol id="mastodon" viewBox="0 0 128 128"><path d="M96 76V50q0-17-16-18-11-1-16 9-5-10-17-9-16 1-16 18V76H44V50q0-8 7-8t7 11V67H69V52q0-10 7-10t7 7V76Zm14-43q3 23 1 43-1 14-38 15-19-1-25-3 0 9 11 15 13 4 28 0v7q-23 5-44 0-17-6-23-25-7-34 0-52 3-12 17-14 26-5 56-1 16 2 17 15Z"/></symbol><symbol id="meatballs-menu" viewBox="0 0 128 128"><path d="M54 64a1 1 0 0020 0A1 1 0 0054 64" id="id7"/><use href="#id7" x="32"/><use href="#id7" x="-32"/></symbol><symbol id="medical-first-aid" viewBox="0 0 128 128"><path d="M15 15h98v98H15ZM52 53V25H75V53h28V75H75v28H53V75H25V53Z"/></symbol><symbol id="medium" viewBox="0 0 128 128"><path d="M114 86v9h-3Q93 95 91 72V69q2-23 21-23h2v3h-2q-10 0-10 16h12v2H102c0 9 5 17 12 19ZM91 31V30H72L54 73 35 30H14v1q6 1 6 6V89q0 5-6 6H29q-6-1-6-6V40L47 95h1L72 39V88q0 6-5 7H91q-5-1-5-7V37q0-4 5-6Z"/></symbol><symbol id="megaphone" viewBox="0 0 128 128"><path d="M42 72q38 6 51 18V21Q80 32 42 39ZV39H21c-9 0-9 33 0 33Zm-2 0H26l10 35H50ZM93 49q9 6 0 13m8-28 6-4m-6 47 6 4m0-26h7"/></symbol><symbol id="message-text" viewBox="0 0 128 128"><path d="M50 86h54q9 0 9-9V38q0-10-10-10H23q-9 0-9 9V77q0 9 9 9H35v14ZM28 47H70m12 0H99M28 67H60Zm44 0H99"/></symbol><symbol id="message-text2" viewBox="0 0 128 128"><path d="M52 85H94q17 0 17-29T95 27H33Q17 27 17 56q0 29 16 29V99ZM28 47H70m12 0H99M28 67H60Zm44 0H99"/></symbol><symbol id="message-text3" viewBox="0 0 128 128"><path d="M52 85H94q17 0 17-29T95 27H33Q16 27 17 56q0 29 16 29V99Z"/><path d="M59 56a1 1 0 0110 0A1 1 0 0159 56" id="id8"/><use href="#id8" x="24"/><use href="#id8" x="-24"/></symbol><symbol id="message" viewBox="0 0 128 128"><path d="M50 86h54q9 0 9-9V38q0-10-10-10H23q-9 0-9 9V77q0 9 9 9H35v14Z"/></symbol><symbol id="message2" viewBox="0 0 128 128"><path d="M52 85H94Q111 85 111 56 111 27 95 27H33Q17 27 17 56 17 85 33 85V99Z"/></symbol><symbol id="messages" viewBox="0 0 128 128"><path d="M88 92H54Q41 92 41 69T54 46h49q13 0 13 23T103 92v12ZM87 45q0-23-13-23H25Q12 22 12 45T25 68V80L40 68"/></symbol><symbol id="messages2" viewBox="0 0 128 128"><path d="M88 92H54Q41 92 41 69T54 46h49q13 0 13 23T103 92v12ZM87 45q0-23-13-23H25Q12 22 12 45T25 68V80L40 68"/><path d="M71 37H28m7 14H28M57 63h43m0 12H57" stroke-dasharray="8,12"/></symbol><symbol id="microchip" viewBox="0 0 128 128"><path d="M30 30H98V98H30Zh9V15h8V30H60V15h8V30H81V15h8V30ZM98 40h15v8H98V60h15v8H98V80h15v8H98ZM30 40H15v8H30V60H15v8H30V80H15v8H30ZM40 98v15h8V98H60v15h8V98H80v15h8V98Zm4-54H84V84H44ZM57 58c6 0 6-8 0-8s-6 8 0 8v8H84M72 72h6v6H72Zm0 3H51V68H44m25-18v8h8V50Z"/></symbol><symbol id="microchip2" viewBox="0 0 128 128"><path d="M30 30H98V98H30Zh9V15h8V30H60V15h8V30H81V15h8V30ZM98 40h15v8H98V60h15v8H98V80h15v8H98ZM30 40H15v8H30V60H15v8H30V80H15v8H30ZM40 98v15h8V98H60v15h8V98H80v15h8V98Zm4-54H84V84H44Z"/></symbol><symbol id="microphone" viewBox="0 0 128 128"><path d="M50 28c0-18 28-18 28 0V65c0 17-28 17-28 1ZM94 76q-30 26-60 0M64 89v24m24 0H40"/></symbol><symbol id="minus" viewBox="0 0 128 128"><path d="m32 64h64"/></symbol><symbol id="minus2" viewBox="0 0 128 128"><path d="M25 55V73h78V55Z"/></symbol><symbol id="money-cash" viewBox="0 0 128 128"><path d="M62 57a14 14 90 109-14A1 1 0 0144 45a1 1 1 0127-2M45 65a1 1 0 002 19A1 1 0 0045 65M87 47h27V98H14V47H44"/></symbol><symbol id="monitor-activity" viewBox="0 0 128 128"><path d="M39 53h9l8-19L72 74l7-21H89M58 84q1 10-14 16v2H84v-2Q69 94 70 84Zm56-59H14V84H114Z"/></symbol><symbol id="monitor-busy" viewBox="0 0 128 128"><path d="M58 84q1 10-14 16v2H84v-2Q69 94 70 84Zm56-59H14V84H114ZM88 55a1 1 90 010-9 1 1 90 010 9m18 2-6-4-6 11-10-4-7 5m0 4h29V40H77ZM14 76H114m0-43H14ZM28 51l-6 4 6 4m8-14-4 20m8-6 6-4-6-4m27-6H56m0 10H67M56 65H67"/></symbol><symbol id="monitor-certified" viewBox="0 0 128 128"><circle cx="64" cy="46" r="15"/><path d="M52 55V77l12-5 12 5V55M56 46l5 5 12-9M58 84q1 10-14 16v2H84v-2Q69 94 70 84Zm56-59H14V84H114Z"/></symbol><symbol id="monitor-leaf" viewBox="0 0 128 128"><path d="M58 84q1 10-14 16v2H84v-2Q69 94 70 84Zm56-59H14V84H114ZM50 71c12 6 44-6 30-40C30 52 45 68 50 71M72 47C66 60 53 69 40 78"/></symbol><symbol id="monitor-performance" viewBox="0 0 128 128"><path d="M34 71 57 52l13 7L94 38H78 94V53M58 84q1 10-14 16v2H84v-2Q69 94 70 84Zm56-59H14V84H114Z"/></symbol><symbol id="monitor-search" viewBox="0 0 128 128"><path d="M22 33V76h84V33Zm92 51H14V25H114ZM70 84q-1 10 14 16v2H44v-2q15-6 14-16ZM61 43H87c5 0 5 7 0 7H61c-5 0-5-7 0-7M44 49l4 3Za1 1 0 00-8-6 1 1 0 008 6ZM35 60H91m0 7H35"/></symbol><symbol id="monitor-tick" viewBox="0 0 128 128"><path d="M58 84q1 10-14 16v2H84v-2Q69 94 70 84Zm56-59H14V84H114ZM41 55l16 16 30-33"/></symbol><symbol id="monitor" viewBox="0 0 128 128"><path d="M58 84q1 10-14 16v2H84v-2Q69 94 70 84Zm56-59H14V84H114Z"/></symbol><symbol id="moon" viewBox="0 0 128 128"><path d="m74 40 4 10 10 4-10 4-4 10-4-10-10-4 10-4z" id="id9"/><use href="#id9" x="24" y="-24"/><path d="M105 94A50 49 35 1150 16a54 50 35 0055 78Z"/></symbol><symbol id="moon2" viewBox="0 0 128 128"><path d="M108 94A50 49 35 1153 16a54 50 35 0055 78Z"/></symbol><symbol id="mouse-pointer" viewBox="0 0 128 128"><path d="M97 63 31 23 46 99 59 75l20 28 10-7L69 68Z"/></symbol><symbol id="music-note" viewBox="0 0 128 128"><path d="M47 97c0 19-31 23-31 4s31-23 31-4V29l66-14V83m0 0c0 19-30 23-30 4s30-23 30-4"/></symbol><symbol id="mute" viewBox="0 0 128 128"><path d="M66 18q0-5-5-1L33 42H18q-4 0-4 4V80q0 4 4 4H33l28 26q5 4 5-1ZM82 45 95 58l13-13 6 6-13 13 13 14-6 6L95 70 82 84l-6-6L89 64 76 51Z"/></symbol><symbol id="new-starburst" viewBox="0 0 128 128"><path d="M95 19q3 13 16 16-13 3-16 16-3-13-16-16 13-3 16-16M60 21q9 35 44 44-35 8-44 44-8-36-44-44 36-8 44-44"/></symbol><symbol id="no-ai" viewBox="0 0 128 128"><path d="M45 78l4-3H46Zm3-9h8l1-1-4-16ZM87 41V33H80V47L63 62 54 33H51L36 85l-9 8A20 20 0 1199 31ZM38 92h3l1-3L59 75h1l7 17h7L65 69 80 55V92h7V50l16-14A20 20 0 1132 97Z"/></symbol><symbol id="note" viewBox="0 0 128 128"><path d="M14 30H114V99H14ZM31 49H97m0 17H31m0 17H67"/></symbol><symbol id="open-folder" viewBox="0 0 128 128"><path d="M16 102l7-57h91l-9 57H16L14 26H41l10 9h50l1 10"/></symbol><symbol id="origami" viewBox="0 0 128 128"><path d="M36 19 14 36V47H36m0 27L77 30h37L64 86ZV19L61 47m3 39 25 24V58"/></symbol><symbol id="package" viewBox="0 0 128 128"><path d="M64 54l50-20V91L64 113Zv59L14 91V34ZM14 34 64 54l50-20L64 14Z"/></symbol><symbol id="paintbrush" viewBox="0 0 128 128"><path d="M43 76Q29 76 25 92s-2 15-11 22c0 0 21 1 28-3q18-10 14-23M49 68l-6 8L56 88l7-7m49-56q7-15-8-9L57 57q-8 0-8 11L63 81q11-1 11-10l38-46"/></symbol><symbol id="paper-airplane" viewBox="0 0 128 128"><path d="M113 20 50 65M15 43 50 65l9 41 54-86Z"/></symbol><symbol id="paperclip" viewBox="0 0 128 128"><path d="M78 37 45 71A1 1 0 0060 87l46-46A1 1 0 0084 20L23 82a1 1 0 0026 26l51-50"/></symbol><symbol id="pause" viewBox="0 0 128 128"><path d="M36 28H56v72H36Zm36 0H92v72H72Z"/></symbol><symbol id="paw-print-animal" viewBox="0 0 128 128"><path d="M32 91q32-43 64 0c6 9-1 23-12 19q-20-7-40 0c-11 4-18-10-12-19zm77-43c9 7-3 31-14 24s3-31 14-24ZM89 20c12 5 2 34-12 28s1-33 12-28zM42 19c15-7 25 22 12 29S29 25 42 19zM19 46C29 36 45 61 35 69S8 55 19 46z"/></symbol><symbol id="peace" viewBox="0 0 128 128"><circle cx="64" cy="64" r="48"/><path d="M64 16v96M98 98 64 62 30 98"/></symbol><symbol id="pen" viewBox="0 0 128 128"><path d="M28 82 14 113 30 99a3 3 0 111 1L15 114l31-13 4-9L37 79Zm86-56q0-10-10-10L57 60Q44 65 40 77L52 89q13-3 18-16Z"/></symbol><symbol id="pencil" viewBox="0 0 128 128"><path d="M23 87l18 18M23 87l-8 26 26-8 72-72q0-17-18-18Zm82-46L87 23M41 87 84 44"/></symbol><symbol id="performance" viewBox="0 0 128 128"><path d="M36 72H28m86-28H14M27 32h1m11 0h1m11 0h1M48 60H28m76 49a20 20 90 00-41 0m1-7H14V20H114v82H103m-8 0-11 7M59 88q23-24 47-1H99h7V80"/></symbol><symbol id="phone" viewBox="0 0 128 128"><path d="M48 49q7 25 32 32c11-11 11-11 22 0s11 11 0 22c-5 5-16 16-54-22C10 38 21 32 26 27c11-11 11-11 22 0s11 11 0 22"/></symbol><symbol id="plane" viewBox="0 0 128 128"><path d="M73 49l38 25V84L73 71V98l14 9v7l-23-5-23 5v-7l14-9V71L17 84V74L55 49V31c0-22 18-22 18 0V49Z"/></symbol><symbol id="plane2" viewBox="0 0 128 128"><path d="M91 51l10 49-8 7L74 68 53 89l4 18-6 5L37 90 16 76l5-5 18 4L60 54 20 34l8-7L77 37 91 23c17-17 31-3 14 14L91 51Z"/></symbol><symbol id="planet-heart" viewBox="0 0 128 128"><circle cx="64" cy="64" r="50"/><path d="M82 110c-45-25 16-16 18-52q2-20 12-7M15 68c41 0 5-20 13-28q16-8-2-8m14-12q12 20 45-1M64 87c37-21 30-58 0-37-29-20-36 18 0 37"/></symbol><symbol id="planet" viewBox="0 0 128 128"><circle cx="64" cy="64" r="50"/><circle cx="40" cy="86" r="7"/><path d="M82 110C16 40 86 80 96 64q1-10-15-14 7-22 31 1M15 68c41 0 5-20 13-28q16-8-2-8M40 20q12 20 45-1"/></symbol><symbol id="play" viewBox="0 0 128 128"><path d="M40 28v72L92 64Z"/></symbol><symbol id="plus" viewBox="0 0 128 128"><path d="m64 32v64M32 64h64"/></symbol><symbol id="plus2" viewBox="0 0 128 128"><path d="M55 55V25H73V55h30V73H73v30H55V73H25V55Z"/></symbol><symbol id="podcast" viewBox="0 0 128 128"><path d="M56 55a1 1 0 0016 0A1 1 0 0056 55M72 78c1-13-17-13-16 0l1 14c3 27 11 27 14 0Zm8-5A24 24 0 1048 73M84 90A40 40 0 1044 90"/></symbol><symbol id="poop-emoji" viewBox="0 0 128 128"><ellipse cx="50" cy="65" rx="5" ry="10"/><ellipse cx="78" cy="65" rx="5" ry="10"/><path d="M43 89q20 18 41 0Zm59 25H29A1 1 90 0126 89a1 1 90 017-24Q25 41 48 41q22-2 11-27 28 1 18 28 23-2 18 23a1 1 90 015 24 1 1 90 012 25"/></symbol><symbol id="poop" viewBox="0 0 128 128"><path d="M102 114H29A1 1 90 0126 89a1 1 90 017-24Q25 41 48 41q22-2 11-27 28 1 18 28 23-2 18 23a1 1 90 015 24 1 1 90 012 25"/></symbol><symbol id="power-reset-restart" viewBox="0 0 128 128"><path d="M64 48V18M45 42l5-15-16-5m16 5a44 44 90 1028 0"/></symbol><symbol id="power" viewBox="0 0 128 128"><path d="M50 30a43 43 0 1028 0M64 15v30"/></symbol><symbol id="pricetag-label" viewBox="0 0 128 128"><path d="M70 18 18 70l40 41 52-53V18ZM92 36A1 1 0 0080 48 1 1 0 0092 36"/></symbol><symbol id="print" viewBox="0 0 128 128"><path d="M94 93h19V46H15V93H32V68H94Zv16H32V93m2-74H92V46H34Zm6 59H86m0 20H67M40 88H86m15-34h4"/></symbol><symbol id="profile-photo" viewBox="0 0 128 128"><path d="M26 113h77V15H26Zq0-22 29-22a32 22 90 1118 0q30 0 30 22Z"/></symbol><symbol id="programming" viewBox="0 0 128 128"><path d="M62 82H44m70-38H14M27 32h1m11 0h1m11 0h1M24 62 42 72 24 82m40 20H14V20H114v82h-3m-8-15L68 69l10 38 7-11 12 14 6-5L91 91Z"/></symbol><symbol id="puzzle" viewBox="0 0 128 128"><path d="M93 31q-7 0-7-7A11 11 90 1064 24q0 7-7 7H38q-7 0-7 7V51q0 7-7 7a11 11 90 100 22q7 0 7 7v20q0 7 7 7H57q7 0 7-7a11 11 90 1122 0q0 7 7 7h14q7 0 7-7V88q0-7-7-7a11 11 90 110-22q7 0 7-7V38q0-7-7-7Z"/></symbol><symbol id="question-mark" viewBox="0 0 128 128"><path d="M64 87V75q0-7 7-7A27 27 90 1042 27M64 96a8 8 90 000 17 8 8 90 000-17"/></symbol><symbol id="quote-close" viewBox="0 0 128 128"><path d="M56 42q7 42-25 55-12 4-2-4Q49 79 46 62 24 69 19 51T33 28 56 42z" id="id10"/><use href="#id10" x="52"/></symbol><symbol id="quote-open" viewBox="0 0 128 128"><path d="M20 86q4 19 23 14T57 77 30 66Q27 49 47 35q10-8-2-4Q13 44 20 86Z" id="id11"/><use href="#id11" x="52"/></symbol><symbol id="record" viewBox="0 0 128 128"><circle cx="64" cy="64" r="32"/></symbol><symbol id="recycle-bin" viewBox="0 0 128 128"><path d="M23 28H52a1 1 0 0125 0h27Zm81 8H24l4 76h72Z"/><path d="M58 59q12-7 22 6-5-22-25-13l-2-6-6 14 13 5Z" id="id12"/><use href="#id12"/><use href="#id12" transform="rotate(120 63 75)"/><use href="#id12" transform="rotate(240 63 75)"/></symbol><symbol id="recycle" viewBox="0 0 128 128"><path d="m58 52-25-9 10-23 5 10q35-18 42 21-17-25-37-10Z" id="id13"/><use href="#id13"/><use href="#id13" transform="rotate(120 61 68)"/><use href="#id13" transform="rotate(240 61 68)"/></symbol><symbol id="rewind" viewBox="0 0 128 128"><path d="M68 57V28L28 64l40 36V71l32 29V28Z"/></symbol><symbol id="road" viewBox="0 0 128 128"><path d="M70 110H58l2-49h8ZM67 48H61l1-30h4ZM90 18l20 92m-92 0L38 18"/></symbol><symbol id="rocket" viewBox="0 0 128 128"><path d="M45 98Q-1 129 30 83ZM83 37a1 1 0 000 15 1 1 0 000-15m23-23q8 0 8 7 0 26-31 55 0 26-23 38V91L37 68H14Q28 45 52 45q28-31 54-31"/></symbol><symbol id="rss" viewBox="0 0 128 128"><path d="M16 69q43 0 43 43H78q0-61-62-61Zm0-35q76 0 76 78h19q0-96-95-96ZM28 88a1 1 0 000 24 1 1 0 000-24"/></symbol><symbol id="save" viewBox="0 0 128 128"><path d="M42 78H85m0 11H42m0 11H83m15 13V61H29v52M70 40H81V21H70ZM88 15V46H38V15m75 15v84H15V15H99Z"/></symbol><symbol id="scales-law-balance" viewBox="0 0 128 128"><path d="M44 77c-4 10-25 10-29 0L30 40 44 77H15m98 0c-4 10-25 10-29 0L99 40l14 37H84m7 28H37m27 0V32M53 35c2-14 20-14 22 0Zm52 0q-7 10-14 0H37q-7 10-15 0"/></symbol><symbol id="science" viewBox="0 0 128 128"><ellipse id="id14" cx="64" cy="64" rx="18" ry="50"/><use href="#id14"/><use href="#id14" transform="rotate(120 64 64)"/><use href="#id14" transform="rotate(240 64 64)"/><circle cx="64" cy="64" r="6"/></symbol><symbol id="science2" viewBox="0 0 128 128"><circle cx="64" cy="64" r="5"/><path d="M77 98A50 18 90 1073 107 1 1 90 0177 98 1 1 90 0173 107" id="id15"/><use href="#id15"/><use href="#id15" transform="rotate(120 64 64)"/><use href="#id15" transform="rotate(240 64 64)"/></symbol><symbol id="science3" viewBox="0 0 128 128"><path d="M77 98A50 18 90 1073 107 1 1 90 0177 98 1 1 90 0173 107" id="id16"/><use href="#id16"/><use href="#id16" transform="rotate(120 64 64)"/><use href="#id16" transform="rotate(240 64 64)"/></symbol><symbol id="scissors" viewBox="0 0 128 128"><path d="M109 28 44 80q9 32-24 22c-7-3 13-16 24-22m65 20L44 48q9-32-24-22c-7 3 13 16 24 22"/></symbol><symbol id="search" viewBox="0 0 128 128"><circle cx="54" cy="54" r="38"/><path d="m81 81 32 32"/></symbol><symbol id="selected" viewBox="0 0 128 128"><path d="M26 58 53 85l52-57M35 35H93V93H35Z"/></symbol><symbol id="seo" viewBox="0 0 128 128"><path d="M114 99V20H14v82H60m35-8a24 24 90 111-1l17 15-1 1ZM39 32h2m10 0h2M29 32H27M14 44H114M22 86V73h8V86 60h8V86 67h8V86ZM70 70c-7-4-10 6-4 6s6 12-3 8M83 69H76V85h7m-7-9h6m10-7c-5 0-6 16 0 16 5 0 5-16 0-16"/></symbol><symbol id="server" viewBox="0 0 128 128"><path d="M18 23h92V44H18Zm83 11H88M31 29a1 1 90 000 9 1 1 90 000-9m21 0a1 1 90 000 9 1 1 90 000-9m21 0a1 1 90 000 9 1 1 90 000-9" id="id17"/><use href="#id17" y="30"/><use href="#id17" y="60"/></symbol><symbol id="settings-wrench" viewBox="0 0 128 128"><path d="M62 47c6-14-3-39-32-30L46 34l-3 9-9 3L17 30C8 59 33 68 47 62l50 50c6 6 21-9 15-15Zm37 56a1 1 0 010-8 1 1 0 010 8Z"/></symbol><symbol id="settings" viewBox="0 0 128 128"><circle cx="30" cy="50" r="11" id="id18"/><path d="M30 14V39m0 22v53M64 14V74m0 22v18M98 14V24m0 22v68"/><use href="#id18"/><use href="#id18" x="34" y="35"/><use href="#id18" x="68" y="-15"/></symbol><symbol id="share-link" viewBox="0 0 128 128"><path d="M113 68V15H60m53 0L37 91M57 27H15v86h86V71"/></symbol><symbol id="share" viewBox="0 0 128 128"><path d="M87 29a13 13 90 112 5L44 64 89 93a13 13 90 11-2 6L40 69a13 13 0 110-10L87 29"/></symbol><symbol id="shield" viewBox="0 0 128 128"><path d="M64 14q11 17 42 12 2 70-42 87Q20 96 22 26q30 5 42-12Z"/></symbol><symbol id="shop" viewBox="0 0 128 128"><path d="M92 93V71H66V93Zm4-66q3-2 0-4H32q-3 2 0 4ZM27 57v48h74V57M96 27l17 25q-12 10-22 0-9 10-18 0-9 10-18 0-9 10-18 0-10 10-22 0L32 27ZM58 105V70H34v35ZM40 85v5H52V85Zl6-4 6 4Z"/></symbol><symbol id="shop.sync-conflict-20250830-135410-KMIPZOF" viewBox="0 0 128 128"><path d="M92 93V71H66V93Zm4-66q3-2 0-4H32q-3 2 0 4ZM27 57v48h74V57M96 27l13 25q-8 10-18 0-9 10-18 0-9 10-18 0-9 10-18 0-10 10-18 0L32 27ZM58 105V70H34v35ZH93M40 85v5H52V85Zl6-4 6 4Z"/></symbol><symbol id="signpost-choices" viewBox="0 0 128 128"><path d="M60 27V18h8v9Zm20 0V47H34L28 37l6-10ZM68 57V47H60V57ZH97l5 10-5 10H47V57Zm-8 56V77h8v36Z"/></symbol><symbol id="signpost-left" viewBox="0 0 128 128"><path d="M60 27V18h8v9Zm20 0V47H34L28 37l6-10ZV47M60 113V47h8v66Z"/></symbol><symbol id="signpost-right" viewBox="0 0 128 128"><path d="M68 27V18h-8v9Zm-20 0V47H94l6-10-6-10ZV47m20 66V47h-8v66Z"/></symbol><symbol id="smartphone" viewBox="0 0 128 128"><path d="M42 14q-4 0-4 4v92q0 4 4 4H86q4 0 4-4V18q0-4-4-4ZM38 24H90m0 71H38m26 6a1 1 0 000 7 1 1 0 000-7"/></symbol><symbol id="smartphone2" viewBox="0 0 128 128"><path d="M42 14q-4 0-4 4v92q0 4 4 4H86q4 0 4-4V18q0-4-4-4Zm22 87a1 1 0 000 7 1 1 0 000-7"/></symbol><symbol id="snail" viewBox="0 0 128 128"><path d="M72 89Q45 76 63 54c8-9 31-12 35 4q4 18-17 18c-11 0-13-15 3-16M72 89c6 1 33 7 39-14q7-42-34-42-30 2-38 34T72 89ZM41 60q5-21-1-29c3-14-19-4-7 3q6 6 0 25-3 4-6 1 4-14-2-23c1-13-18-4-7 3q6 6 2 21-8 43 26 43h67q-4-16-20-14"/></symbol><symbol id="speaking" viewBox="0 0 128 128"><path d="M83 54h27q4 0 4-4V31q0-5-5-5H69q-4 0-4 4V50q0 4 4 4h6v7ZM20 53q-1 14 0 17 19 14 38 0 1-4 0-17-5-4-12-13 1 4-2 9 0-8-7-11-2 5 4 16-11-6-11-12-2 4-10 11M14 101q0-15 6-23 19 11 38 0 6 8 6 23M39 71a1 1 90 010-38 1 1 90 010 38M72 33H93m6 0h8m0 7H85m-6 0H72m0 7H87m6 0h14"/></symbol><symbol id="speech-bubble" viewBox="0 0 128 128"><path d="M63 113a1 1 90 001-98C26 14 3 54 21 88l-6 25 26-6q10 6 22 6"/></symbol><symbol id="sprout" viewBox="0 0 128 128"><path d="M24 113q40-40 80 0M64 93V63q0-5 5-13M23 26V36q2 25 26 26H59V52Q57 27 33 26H23M69 50H79q25-1 26-26V14H95Q71 15 69 40V50L90 27M38 40 59 62q4 2 5 8"/></symbol><symbol id="square-small" viewBox="0 0 128 128"><path d="M35 35h58v58H35Z"/></symbol><symbol id="square" viewBox="0 0 128 128"><path d="M16 16h96v96H16Z"/></symbol><symbol id="star-half" viewBox="0 0 128 128"><path d="M50 50H15L41 77 28 113 64 93V15Z"/></symbol><symbol id="star" viewBox="0 0 128 128"><path d="M50 50H15L41 77 28 113 64 93l36 20L89 77l24-27H78L64 15Z"/></symbol><symbol id="sticky-note" viewBox="0 0 128 128"><path d="M87 16l25 25v71H16V16H87V41h25"/></symbol><symbol id="stop" viewBox="0 0 128 128"><path d="M28 28h72v72H28Z"/></symbol><symbol id="suitcase" viewBox="0 0 128 128"><path d="M87 55H42h4v4M59 34V21H69V34h6V15H53V34Zm33 0q3 0 3 3v67q0 3-3 3H38q-3 0-3-3V37q0-3 3-3ZM44 107c0 9 10 9 10 0m20 0c0 9 10 9 10 0"/></symbol><symbol id="sun" viewBox="0 0 128 128"><circle cx="64" cy="64" r="26"/><path d="m39 89-7 7m7-57-7-7m64 64-7-7m7-57-7 7M30 64H17m94 0H98M64 98v13m0-94v13"/></symbol><symbol id="tablet" viewBox="0 0 128 128"><path d="M30 14q-4 0-4 4v92q0 4 4 4H98q4 0 4-4V18q0-4-4-4Zm34 87a1 1 0 000 7 1 1 0 000-7"/></symbol><symbol id="tablet2" viewBox="0 0 128 128"><path d="M30 14q-4 0-4 4v92q0 4 4 4H98q4 0 4-4V18q0-4-4-4Zm34 87a1 1 0 000 7 1 1 0 000-7M26 95h76M26 24h76"/></symbol><symbol id="target" viewBox="0 0 128 128"><path d="M88 40 60 69m29-37q-6 13 8 7l15-12q-11 1-10-10Zm0 18A40 40 90 1178 39M65 53a21 21 90 1011 11"/></symbol><symbol id="team" viewBox="0 0 128 128"><circle cx="64" cy="46" r="20"/><path d="M38 39a11 11 90 103 19M90 39A11 11 90 1187 58M79 68c5-3 24-6 33 13M49 68c-5-3-24-6-33 13m8 20c13-37 66-37 79 0"/></symbol><symbol id="team2" viewBox="0 0 128 128"><path d="M93 46a1 1 0 0020 0A1 1 0 0093 46m18 14q-10 8-19-2 8 26-2 42 31-4 21-40M64 54a1 1 0 000-38 1 1 0 000 38m21 5q-21 6-42 0c-19 71 61 71 42 0M15 46a1 1 0 0020 0A1 1 0 0015 46m23 54Q28 84 36 58q-9 10-19 0Q7 96 38 100m7-66q3-9 10-10t7-4q5 3 9 1T83 35q3 8 2 18-21 4-42 0-2-10 2-19M15 46q5-3 8-9 1 2 6 2 6 1 6 7m58 0q3-17 20 0"/></symbol><symbol id="team3" viewBox="0 0 128 128"><path d="M90 55a1 1 90 0018 0A1 1 90 0090 55m24 34q1-11-6-22-10 5-18-1l-2 5M64 67a1 1 90 000-38 1 1 90 000 38M89 97q0-15-6-23-19 11-38 0-6 8-6 23M20 56a1 1 90 0018-2A1 1 90 0020 56M40 71l-2-5q-7 6-18 1-7 11-6 22M45 49q8-7 10-11 0 6 11 12-6-11-4-16 7 3 7 11 3-5 2-9 7 9 12 13 1 13 0 17-19 14-38 0-1-3 0-17M20 56q4-3 7-8 3 4 6 2 5 6 5 4m52 1q6-10 18 0"/></symbol><symbol id="telescope" viewBox="0 0 128 128"><path d="M102 21q6 7 7 17L96 43 89 26ZM40 107 62 53l23 53M62 53V98M90 28 39 47l4 13L95 41ZM27 45l-5 3 6 8h4l11 4-4-13-6 2Zm25-3-6-4-6 2-2-5L61 25l3 6-10 4 6 4Z"/></symbol><symbol id="testtube" viewBox="0 0 128 128"><path d="M102 104q7 9-1 9H27q-8 0-1-9L53 69q0-26 0-47-4-2-2-6H77q2 4-2 6V69l27 35M61 34H53V44h8M53 54h8M40 86H88"/></symbol><symbol id="thumb-down" viewBox="0 0 128 128"><path d="M66 92c-10 20 4 24 7 19Q84 88 93 79t2-53q-1-9-13-10t-45 0q-7 6-3 13-6 8-1 14-6 9-1 15-5 10 2 14 4 2 35 1 5 1-3 19"/></symbol><symbol id="thumb-down2" viewBox="0 0 128 128"><path d="M95 30a1 1 90 010-5 1 1 90 010 5M81 18q10-3 21-1 7 31 1 57H87M57 92q8-18 3-19-31 1-35-1-7-4-2-14-5-6 1-15-5-6 1-14-4-7 3-13 33-1 45 0T86 26q7 44-2 53T64 111c-3 5-17 1-7-19"/></symbol><symbol id="thumb-up" viewBox="0 0 128 128"><path d="M62 36c10-20-4-24-7-19Q44 40 35 49t-2 53q1 9 13 10t45 0q7-6 3-13 6-8 1-14 6-9 1-15 5-10-2-14-4-2-35-1-5-1 3-19"/></symbol><symbol id="thumb-up2" viewBox="0 0 128 128"><path d="M71 36c10-20-4-24-7-19Q53 40 44 49t-2 53q1 9 13 10t45 0q7-6 3-13 6-8 1-14 6-9 1-15 5-10-2-14-4-2-35-1-5-1 3-19M41 54H25q-6 26 1 57 11 2 21-1M33 98a1 1 0 000 5 1 1 0 000-5"/></symbol><symbol id="tick" viewBox="0 0 128 128"><path d="m14 65 34 34 65-71"/></symbol><symbol id="tickbox" viewBox="0 0 128 128"><path d="M37 66l20 20 38-41M16 16h96v96H16Z"/></symbol><symbol id="toggle-b" viewBox="0 0 128 128"><path d="M78 83H34a2 2 90 110-38H78a1 1 90 0131 38A1 1 90 0178 45"/></symbol><symbol id="toggle" viewBox="0 0 128 128"><path d="M50 83H94a2 2 90 100-38H50A1 1 90 0019 83 1 1 90 0050 45"/></symbol><symbol id="trash" viewBox="0 0 128 128"><path d="M48 53V92M80 53V92M64 53V92M23 28H52a1 1 0 0125 0h27Zm81 8H24l4 76h72Z"/></symbol><symbol id="tree-pine" viewBox="0 0 128 128"><path d="M80 68H92L74 44H84L64 15 44 44H54L36 68H48L34 88q30 5 60 0ZM64 91v22"/></symbol><symbol id="tree-roots" viewBox="0 0 128 128"><path d="M51 43q10 4 13 26m0 8A1 1 90 0131 62a1 1 90 016-27A1 1 90 0166 25 1 1 90 0195 40 1 1 90 0164 77M77 49q-6 2-13 20v32c10 1 20 9 27 8m-27-8c-12 7-18 1-27 8m27-8q-9 8-9 12m9-12q9 8 9 12"/></symbol><symbol id="tree" viewBox="0 0 128 128"><path d="M50 47q12 2 14 24m0 7A1 1 0 0130 65a1 1 0 013-23A1 1 0 0167 25 1 1 0 01100 45 1 1 0 0164 78M82 56q-9-2-18 15v42"/></symbol><symbol id="tree2" viewBox="0 0 128 128"><path d="M64 78A1 1 0 0130 65a1 1 0 013-23A1 1 0 0167 25a1 1 0 0133 20A1 1 0 0164 78v35"/></symbol><symbol id="tree3" viewBox="0 0 128 128"><path d="M82 77c2 16-38 16-36 0-11 1-15-24-3-28-12-1-1-27 9-24-8-14 32-14 24 0 10-3 21 23 9 24 12 4 8 29-3 28ZM64 31v82M52 39 64 49 76 39M51 62 64 72 76 62"/></symbol><symbol id="tree4" viewBox="0 0 128 128"><path d="M64 87c-12 5-22 1-26-12-9 4-23-26-4-32-13-11 8-27 16-19-6-13 34-13 28 1 8-9 29 7 16 18 18 6 5 36-5 32-3 13-13 17-25 12m0-51v77M54 41l10 8 10-8m4 23L64 74 50 64"/></symbol><symbol id="triangle" viewBox="0 0 128 128"><path d="M64 22l49 83H15Z"/></symbol><symbol id="trust" viewBox="0 0 128 128"><path d="M37 66l20 20 38-41M64 14q11 17 42 12 2 70-42 87Q20 96 22 26q30 5 42-12Z"/></symbol><symbol id="tshirt-clothing" viewBox="0 0 128 128"><path d="M47 15q17 23 34 0h3q10 0 29 14V59L94 54v59H34V54L15 59V29Q34 15 44 15Z"/></symbol><symbol id="unicorn" viewBox="0 0 128 128"><path d="M95 88c11 3 15-12 8-15L79 54q-2-7-9-9 17-11 36-24 10-8 2-6-21 9-43 20 3-14-5 2 0-21-5-6-3 8-8 11Q23 62 19 94q-3 19 11 19H87q9 0-17-31 7 5 19 4Z"/></symbol><symbol id="unlocked" viewBox="0 0 128 128"><path d="M33 60H95v51H33V60H46L35 43A1 1 90 1164 24L78 46M60 99h8V88a7 7 1 10-8 0Z"/></symbol><symbol id="up-arrow" viewBox="0 0 128 128"><path d="M64 115.5V12ZM19 57 64 12l45 45"/></symbol><symbol id="upload" viewBox="0 0 128 128"><path d="m64 91V20M36 48l28-28 27 28M23 73v36h82V73"/></symbol><symbol id="user" viewBox="0 0 128 128"><circle cx="64" cy="42" r="26"/><path d="M16 112c17-44 80-44 96 0"/></symbol><symbol id="user2" viewBox="0 0 128 128"><path d="M37 43q-3 20 0 24 27 20 54 0 2-4 0-24-7-6-17-19 2 6-3 13 0-12-10-16-3 7 6 23-16-9-16-17-3 5-14 16m-9 71q0-24 9-35 27 15 55 0 8 11 8 35M64 68a1 1 90 010-54 1 1 90 010 54"/></symbol><symbol id="user3" viewBox="0 0 128 128"><path d="M64 68a1 1 90 000-54 1 1 90 000 54m36 46q0-24-8-35-28 15-55 0-9 11-9 35m9-75q13-8 17-17 10 5 20-1 4 10 17 18"/></symbol><symbol id="users" viewBox="0 0 128 128"><circle cx="57" cy="46" r="22"/><path d="M74 72c6-3 29-8 39 15M15 103c14-37 68-37 83 0M85 38A12 12 90 1182 60"/></symbol><symbol id="video" viewBox="0 0 128 128"><path d="M15 15h98v98H15ZM43 37V80L85 60ZM15 103h98m-80 0v10H43V103Z"/></symbol><symbol id="vimeo" viewBox="0 0 128 128"><path d="M113 42c1-13-4-19-14-19-14-1-23 7-28 23 6-3 15-4 14 6 0 4-2 9-6 15C67 85 64 79 58 39c-2-11-6-16-14-15-7 0-17 11-29 21l5 6c4-3 7-4 8-4 6 0 9 16 17 45 4 10 9 15 14 15 10 0 21-8 34-26 13-16 20-29 20-39Z"/></symbol><symbol id="warning" viewBox="0 0 128 128"><path d="M64 22l49 83H15Zm0 56V36m0 50a5 5 90 010 11 5 5 90 010-11"/></symbol><symbol id="whatsapp" viewBox="0 0 128 128"><path d="M50 59q9 15 22 19c7-9 5-8 13-4s8 6 3 12c-8 7-18 7-36-8-9-8-19-20-13-32 3-6 7-8 10-4 9 11 7 11 1 17m13 54q-12 0-22-6l-26 6 6-25C3 54 26 14 64 15a1 1 90 01-1 98"/></symbol><symbol id="wifi-down" viewBox="0 0 128 128"><path d="M64 108l50-56A75 75 90 0014 46Z"/></symbol><symbol id="wifi" viewBox="0 0 128 128"><path d="M29 67a50 50 90 0170 0M47 85a25 25 90 0135 0M14 46a75 75 90 01100 0M64 102v0"/></symbol><symbol id="writing-pen" viewBox="0 0 128 128"><path d="M83 17q-7 0-7 8l30 30q8 0 8-7L83 17m-7 8L46 39 29 104 63 67a7 7 90 112 2L29 104 91 87l15-32M14 24c32 15-17 69 7 86"/></symbol><symbol id="x-why-not-leave" viewBox="0 0 128 128"><path d="m94 17h16L75 57l41 54H84l-25-33-29 33H14l37-43-39-52h33l23 30zm-6 85h9L40 26H30z"/></symbol><symbol id="xing" viewBox="0 0 128 128"><path d="M37 87q2 0 5-5L56 57 46 41q-2-3-4-3H28q-4 0-2 3L36 57 21 83q-2 4 2 4H37ZM89 17q-2 0-4 3L55 73l20 36q2 3 4 3H93q3 0 2-3L75 73l32-53q2-3-2-3Z"/></symbol><symbol id="youtube" viewBox="0 0 128 128"><path d="M52 78V46L81 61Zm60-47H16V94h96Z"/></symbol><symbol id="zip-folder" viewBox="0 0 128 128"><path d="M81 88V52H92a1 1 0 011 21H81M66 52V88M51 88H28L51 52H28m87-16H57L46 25H14v78H115Z"/></symbol><symbol id="zoom-abc-spelling" viewBox="0 0 128 128"><circle cx="54" cy="54" r="38"/><path d="M38 62c-16 6-17-18 0-12V62q0 1 2 1m9-13c13-6 19 16 0 13V39M80 50c-15-5-15 17 0 13m33 50L81 81"/></symbol><symbol id="zoom-in" viewBox="0 0 128 128"><circle cx="54" cy="54" r="38"/><path d="m81 81 32 32M40 54h28M54 40v28"/></symbol><symbol id="zoom-out" viewBox="0 0 128 128"><circle cx="54" cy="54" r="38"/><path d="m81 81 32 32M40 54h28"/></symbol></svg>